<svg width="17" height="17" viewBox="0 0 17 17" fill="none" xmlns="http://www.w3.org/2000/svg">
<path d="M8.14849 3.83618C6.95617 3.83618 5.98552 4.81571 5.98552 6.01311C5.98552 6.77059 6.37449 7.43942 6.96185 7.82928C6.25244 8.06648 5.63859 8.50982 5.18835 9.0898C4.93944 8.89833 4.6613 8.74435 4.36146 8.63401C4.81614 8.29646 5.11327 7.75422 5.11327 7.14479C5.11327 6.12925 4.29193 5.29791 3.28255 5.29791C2.27316 5.29791 1.45183 6.12925 1.45183 7.14479C1.45183 7.75457 1.7492 8.29706 2.20426 8.63461C0.999481 9.07919 0.139038 10.2432 0.139038 11.613V12.5753C0.139161 12.6486 0.168504 12.7189 0.220531 12.7706C0.272558 12.8224 0.342957 12.8512 0.416313 12.851H4.63804C4.64828 12.8521 4.65851 12.8527 4.66874 12.8526H11.6285C11.6387 12.8527 11.6491 12.8521 11.6592 12.851H15.8812C16.033 12.8503 16.1559 12.7272 16.1563 12.5753V11.613C16.1563 10.2432 15.2973 9.07919 14.0932 8.63449C14.5482 8.29706 14.8456 7.75444 14.8456 7.14467C14.8456 6.12913 14.0243 5.29779 13.0149 5.29779C12.0055 5.29779 11.1842 6.12913 11.1842 7.14467C11.1842 7.7541 11.4814 8.29643 11.9361 8.63389C11.6356 8.74448 11.3574 8.89896 11.1081 9.0909C10.6581 8.51057 10.0451 8.06662 9.3357 7.82928C9.92291 7.43942 10.312 6.77059 10.312 6.01311C10.312 4.81571 9.34088 3.83618 8.14856 3.83618H8.14849ZM8.14849 4.38852C9.04024 4.38852 9.75913 5.11223 9.75913 6.01311C9.75913 6.90694 9.05145 7.62362 8.16957 7.63511C8.16255 7.63511 8.15564 7.63412 8.14849 7.63412C8.14134 7.63412 8.13456 7.63511 8.12741 7.63511C7.24553 7.62376 6.53833 6.90697 6.53833 6.01311C6.53833 5.11211 7.25661 4.38852 8.14837 4.38852H8.14849ZM3.28258 5.85021C3.99014 5.85021 4.56097 6.42448 4.56097 7.14476C4.56097 7.86021 3.99752 8.43202 3.29662 8.43978C3.29194 8.43978 3.28738 8.43929 3.28257 8.43929C3.27788 8.43929 3.27332 8.43978 3.26851 8.43978C2.56762 8.43201 2.00417 7.86008 2.00417 7.14476C2.00417 6.42452 2.575 5.85021 3.28256 5.85021H3.28258ZM13.0147 5.85021C13.7223 5.85021 14.2931 6.42448 14.2931 7.14476C14.2931 7.86021 13.7297 8.43202 13.0288 8.43978C13.0241 8.43978 13.0195 8.43929 13.0147 8.43929C13.01 8.43929 13.0055 8.43978 13.0007 8.43978C12.2998 8.43201 11.7363 7.86008 11.7363 7.14476C11.7363 6.42452 12.3071 5.85021 13.0147 5.85021H13.0147ZM8.12734 8.18741C8.13437 8.18753 8.14128 8.1884 8.14843 8.1884C8.15545 8.1884 8.16236 8.18741 8.16951 8.18741C9.93808 8.19875 11.3535 9.62632 11.3535 11.4134L11.3534 12.3001H4.94375V11.4134C4.94375 9.62616 6.35874 8.19877 8.12709 8.18741H8.12734ZM3.26143 8.99275C3.26846 8.99287 3.27536 8.99373 3.28252 8.99373C3.28967 8.99373 3.29645 8.99275 3.3036 8.99275C3.90179 8.99755 4.44772 9.20382 4.88242 9.5489C4.57136 10.0993 4.39148 10.7346 4.39148 11.4135V12.2981H0.69115V11.613C0.69115 10.1606 1.83306 9.00408 3.26137 8.99262L3.26143 8.99275ZM12.9936 8.99275C13.0007 8.99287 13.0075 8.99373 13.0147 8.99373C13.0218 8.99373 13.0286 8.99275 13.0357 8.99275C14.464 9.00409 15.606 10.1608 15.606 11.6131V12.2981H11.9037L11.9036 11.4135C11.9036 10.7349 11.7242 10.1001 11.4138 9.54988C11.8486 9.20431 12.3949 8.99754 12.9936 8.99275H12.9936Z" fill="#103E13"/>
</svg>
