<svg width="12" height="11" viewBox="0 0 12 11" fill="none" xmlns="http://www.w3.org/2000/svg">
<path d="M7.37968 5.3917C7.29929 5.3917 7.22465 5.36959 7.15834 5.33404V5.33499C7.15834 5.46147 7.10918 5.58025 7.01998 5.66921C6.93078 5.75841 6.81209 5.80757 6.68575 5.80757C6.60419 5.80757 6.5286 5.78492 6.46157 5.74842C6.45481 5.86413 6.40856 5.97228 6.32605 6.05488C6.23685 6.14408 6.11816 6.19324 5.99174 6.19324C5.74058 6.19324 5.53661 5.99581 5.52191 5.74834C5.4442 5.79034 5.35634 5.81237 5.26572 5.80655C5.01864 5.79034 4.82515 5.57687 4.82515 5.32043V3.19482L4.58311 3.61414C4.49092 3.77453 4.31836 3.87411 4.13256 3.87411C4.04202 3.87411 3.95259 3.85035 3.87338 3.80497C3.77474 3.74778 3.70419 3.65599 3.67484 3.54617C3.64535 3.43629 3.66061 3.32137 3.71763 3.22288C3.71771 3.22288 4.50956 1.85162 4.55787 1.76739C4.56361 1.75473 4.57998 1.718 4.5939 1.68669C4.60719 1.6568 4.6186 1.62612 4.62953 1.59529C4.86833 0.921118 5.45962 0.502338 6.17273 0.502338C7.09877 0.502338 7.85216 1.31928 7.85216 2.32344L7.85223 4.91904C7.85223 5.04537 7.80315 5.16406 7.71403 5.25335C7.62483 5.34255 7.50614 5.39171 7.37966 5.39171L7.37968 5.3917ZM6.17274 0.753454C5.55998 0.753454 5.07159 1.09956 4.86622 1.67927C4.85309 1.71608 4.8394 1.75289 4.82343 1.78876C4.7771 1.89267 4.7771 1.89267 4.76404 1.90761L4.76231 1.90612C4.69766 2.02812 4.50557 2.36076 3.93507 3.34856C3.91163 3.38907 3.90541 3.43611 3.91737 3.4811C3.92948 3.52609 3.95851 3.564 3.9987 3.58721C4.12345 3.65886 4.2943 3.61261 4.36541 3.48873L4.842 2.66359C4.87047 2.61443 4.92805 2.59028 4.98327 2.60523C5.03817 2.61994 5.07632 2.66973 5.07632 2.72652V5.32051C5.07632 5.4429 5.16866 5.54853 5.28218 5.556C5.34762 5.55946 5.40866 5.53752 5.45452 5.49174C5.49621 5.45005 5.51917 5.39452 5.51917 5.33513V3.63863C5.51917 3.56925 5.57541 3.51301 5.64479 3.51301C5.71417 3.51301 5.77041 3.56917 5.77041 3.63863L5.77033 5.72074C5.77033 5.84282 5.86967 5.94217 5.99175 5.94217C6.05106 5.94217 6.10675 5.9192 6.14852 5.87751C6.19021 5.83574 6.21317 5.78005 6.21317 5.72074V3.63863C6.21317 3.56925 6.26934 3.51301 6.33879 3.51301C6.40817 3.51301 6.46441 3.56917 6.46441 3.63863L6.46433 5.31562V5.33512C6.46433 5.45712 6.56368 5.55646 6.68583 5.55646C6.74506 5.55646 6.80059 5.53342 6.8426 5.49157C6.88429 5.44996 6.90725 5.39443 6.90725 5.33504V3.63854C6.90725 3.56916 6.96342 3.51292 7.03287 3.51292C7.10225 3.51292 7.15849 3.56908 7.15849 3.63854L7.15833 4.9191C7.15833 5.04126 7.25768 5.1406 7.37967 5.1406C7.43906 5.1406 7.49459 5.11756 7.53628 5.07595C7.57813 5.0341 7.60102 4.97841 7.60102 4.9191L7.60109 2.3235C7.60109 1.45788 6.96035 0.753479 6.17273 0.753479L6.17274 0.753454Z" fill="#103E13"/>
<path d="M2.44427 7.19567L4.26708 6.10216C4.48685 5.97017 4.76963 6.02626 4.91058 6.2299C4.96203 6.30408 4.9883 6.39052 4.99239 6.47855C5.06035 6.44307 5.13429 6.4238 5.20956 6.4238C5.2481 6.4238 5.2868 6.4286 5.32503 6.43812C5.4475 6.46871 5.5507 6.54525 5.6156 6.65348C5.68057 6.76187 5.69953 6.88889 5.66893 7.01122C5.64069 7.12441 5.57187 7.21968 5.47614 7.28504C5.54308 7.32452 5.60081 7.37841 5.64187 7.447C5.70685 7.55539 5.7258 7.68235 5.69528 7.80482C5.66468 7.92714 5.58815 8.03033 5.47976 8.09539L5.47913 8.09579C5.54489 8.13519 5.6016 8.18852 5.64219 8.25609C5.70724 8.36448 5.7262 8.49151 5.6956 8.61398C5.66492 8.73637 5.58839 8.83957 5.48016 8.90455L3.25447 10.2398C2.83907 10.4889 2.35886 10.5749 1.90249 10.4817C1.44202 10.3876 1.06068 10.1229 0.828806 9.73637C0.461859 9.1248 0.516852 8.40224 0.972043 7.85076C0.992889 7.82559 1.01342 7.79995 1.03206 7.77336C1.0518 7.74528 1.07485 7.71224 1.08272 7.70092C1.12983 7.61675 1.89865 6.23158 1.89857 6.23174C1.9762 6.09165 2.12172 6.01235 2.2718 6.01243C2.3418 6.01243 2.41283 6.02966 2.47836 6.066C2.55749 6.1102 2.62395 6.17462 2.67044 6.25226C2.76601 6.41154 2.76939 6.61087 2.67941 6.77218L2.44427 7.19567ZM2.4552 6.38139C2.43082 6.34073 2.39731 6.30832 2.35632 6.28535C2.27161 6.23847 2.16495 6.26899 2.11831 6.35339C1.56818 7.34449 1.38065 7.68224 1.30828 7.80244L1.30993 7.80283C1.30387 7.82297 1.30387 7.82297 1.23765 7.91759C1.21515 7.9496 1.19069 7.98036 1.16575 8.01064C0.774338 8.48488 0.72889 9.08166 1.04407 9.60717C1.2393 9.93265 1.56196 10.1558 1.95265 10.2356C2.34758 10.3159 2.76385 10.2412 3.12513 10.0244L5.35102 8.68908C5.40184 8.65864 5.43771 8.61027 5.45202 8.55293C5.46634 8.49566 5.45745 8.43612 5.42693 8.38531C5.36416 8.28069 5.22785 8.24632 5.12323 8.30932L4.02517 8.96809C3.9657 9.0038 3.88846 8.98461 3.85283 8.92506C3.81712 8.8656 3.83639 8.78843 3.89585 8.75272L4.994 8.09396L5.35063 7.88001C5.40145 7.84949 5.43739 7.80111 5.45171 7.74393C5.46602 7.68658 5.45714 7.62696 5.42662 7.57623C5.36377 7.47153 5.22745 7.43748 5.12292 7.50025L3.66814 8.37296C3.60851 8.40875 3.53151 8.3894 3.4958 8.32994C3.46009 8.27047 3.47943 8.19331 3.53882 8.1576L5.32429 7.08651C5.3751 7.056 5.41097 7.0077 5.42528 6.95036C5.4396 6.89309 5.43071 6.83355 5.40027 6.78274C5.36983 6.732 5.32145 6.69613 5.26411 6.68182C5.20645 6.6675 5.14715 6.67639 5.09649 6.70675L4.76597 6.90505C4.76589 6.90505 4.76589 6.90513 4.76581 6.90513H4.76573L3.31103 7.77785C3.25141 7.81371 3.17432 7.79437 3.13869 7.73482C3.10298 7.67536 3.12233 7.59819 3.18172 7.56248L4.6365 6.68977C4.68731 6.65925 4.72326 6.61087 4.73758 6.55369C4.75331 6.49092 4.74135 6.42673 4.70407 6.37293C4.63941 6.27941 4.50113 6.25455 4.39628 6.31755L2.172 7.65192C2.12331 7.68102 2.06094 7.67395 2.02011 7.63454C1.97921 7.59505 1.97001 7.53299 1.99754 7.48336L2.46005 6.65005C2.50646 6.56675 2.50465 6.46386 2.45517 6.38142L2.4552 6.38139Z" fill="#103E13"/>
<path d="M11.1545 9.73631C10.9227 10.1229 10.5415 10.3875 10.0809 10.4816C9.62449 10.5747 9.14444 10.4888 8.72896 10.2397L6.50307 8.90443C6.39476 8.83946 6.31815 8.73626 6.28747 8.6137C6.25703 8.49139 6.27606 8.36435 6.34096 8.25612C6.38146 8.18847 6.43826 8.13514 6.50409 8.09573L6.50346 8.09534C6.39515 8.03037 6.31854 7.92717 6.28802 7.80477C6.25735 7.68238 6.27638 7.55526 6.34135 7.44688C6.3832 7.37727 6.44054 7.32284 6.50599 7.28422C6.41097 7.21885 6.34253 7.12391 6.31437 7.01127C6.2837 6.8888 6.30273 6.76176 6.3677 6.65352C6.4326 6.54521 6.53588 6.46868 6.65827 6.43808C6.6965 6.42849 6.73528 6.42377 6.77367 6.42377C6.84902 6.42384 6.92296 6.44296 6.99092 6.47851C6.99509 6.39049 7.02128 6.30405 7.07272 6.22987C7.21376 6.02639 7.4963 5.97007 7.71639 6.10213L9.53914 7.19548L9.30419 6.77229C9.21405 6.61073 9.21735 6.4114 9.31292 6.25204C9.35949 6.17448 9.42603 6.11006 9.50556 6.06546C9.57092 6.02928 9.64171 6.01214 9.71155 6.01214C9.86155 6.01221 10.0072 6.09134 10.0848 6.23144C10.3551 6.71842 10.8651 7.63683 10.9009 7.70094C10.9086 7.71204 10.9316 7.74507 10.9514 7.77315C10.9702 7.79982 10.9904 7.8253 11.0115 7.85063C11.4666 8.40233 11.5215 9.12481 11.1545 9.73632L11.1545 9.73631ZM10.8177 8.01071C10.7926 7.98043 10.7681 7.94952 10.7458 7.91766C10.6778 7.82122 10.6761 7.81871 10.671 7.79346C10.5915 7.66202 10.3977 7.3131 9.86496 6.35329C9.81824 6.26905 9.71205 6.2383 9.62749 6.28502C9.58588 6.3083 9.55245 6.34079 9.52807 6.38145C9.47867 6.46381 9.47678 6.56669 9.52342 6.65024L9.98578 7.4833C10.0134 7.53302 10.0042 7.595 9.96336 7.63449C9.92262 7.67405 9.86032 7.68097 9.81139 7.65187L7.58711 6.3175C7.48226 6.25465 7.34407 6.27928 7.27925 6.37288C7.24196 6.42668 7.23009 6.49087 7.24566 6.55356C7.25998 6.61082 7.29592 6.65912 7.34681 6.68964C7.34697 6.68971 7.34705 6.68987 7.34721 6.68995L8.80153 7.56243C8.86099 7.59814 8.88026 7.67522 8.84455 7.73477C8.80884 7.79415 8.73183 7.81358 8.67221 7.77779L6.88675 6.70671C6.83609 6.67635 6.77647 6.66738 6.71921 6.68178C6.66178 6.69609 6.61349 6.73196 6.58305 6.78285C6.55253 6.83358 6.54372 6.89313 6.55788 6.95039C6.57219 7.00766 6.60814 7.05603 6.65895 7.08655L7.00639 7.29492L8.44434 8.15765C8.5038 8.19336 8.52307 8.27045 8.48736 8.32999C8.45165 8.38938 8.37464 8.40873 8.31502 8.37302L6.8604 7.5003C6.75579 7.43737 6.61955 7.47151 6.55662 7.57628C6.5261 7.6271 6.51729 7.68664 6.53145 7.7439C6.54577 7.80117 6.58171 7.84946 6.6326 7.88006L6.98924 8.09401L8.08723 8.75278C8.14669 8.78849 8.16596 8.86557 8.13025 8.92512C8.09454 8.9845 8.01753 9.00401 7.95791 8.96814L6.85993 8.30938C6.80927 8.27902 6.74989 8.27005 6.69231 8.28444C6.63504 8.29876 6.58659 8.33463 6.55615 8.38536C6.52571 8.43617 6.51682 8.4958 6.53098 8.55298C6.5453 8.61024 6.58124 8.65854 6.63213 8.68914L8.85802 10.0244C9.21923 10.2411 9.6358 10.3162 10.0305 10.2356C10.4211 10.1559 10.7438 9.93271 10.939 9.60722C11.2545 9.08162 11.2091 8.48477 10.8178 8.0107L10.8177 8.01071Z" fill="#103E13"/>
</svg>
