<svg width="27" height="27" viewBox="0 0 27 27" fill="none" xmlns="http://www.w3.org/2000/svg">
<path d="M23.4375 0.625C24.9609 0.625 26.25 1.91406 26.25 3.4375V24.0625C26.25 25.6445 24.9609 26.875 23.4375 26.875H15.3516V17.9688H18.75L19.3945 13.75H15.3516V11.0547C15.3516 9.88281 15.9375 8.76953 17.7539 8.76953H19.5703V5.19531C19.5703 5.19531 17.9297 4.90234 16.2891 4.90234C13.0078 4.90234 10.8398 6.95312 10.8398 10.5859V13.75H7.14844V17.9688H10.8398V26.875H2.8125C1.23047 26.875 0 25.6445 0 24.0625V3.4375C0 1.91406 1.23047 0.625 2.8125 0.625H23.4375Z" fill="#757575"/>
</svg>
