<svg width="27" height="27" viewBox="0 0 27 27" fill="none" xmlns="http://www.w3.org/2000/svg">
<path d="M13.125 10.6445C14.8242 10.6445 16.2305 12.0508 16.2305 13.75C16.2305 15.5078 14.8242 16.9141 13.125 16.9141C11.3672 16.9141 9.96094 15.5078 9.96094 13.75C9.96094 12.0508 11.3672 10.6445 13.125 10.6445ZM20.3906 8.24219C20.918 9.47266 20.8008 12.4023 20.8008 13.75C20.8008 15.1562 20.918 18.0859 20.3906 19.3164C20.0977 20.1367 19.4531 20.7812 18.6328 21.0742C17.4023 21.6016 14.4727 21.4844 13.125 21.4844C11.7188 21.4844 8.78906 21.6016 7.55859 21.0742C6.73828 20.7812 6.09375 20.1367 5.80078 19.3164C5.33203 18.0859 5.39062 15.1562 5.39062 13.75C5.39062 12.4023 5.33203 9.47266 5.80078 8.24219C6.09375 7.42188 6.73828 6.77734 7.55859 6.48438C8.78906 5.95703 11.7188 6.07422 13.125 6.07422C14.4727 6.07422 17.4023 5.95703 18.6328 6.48438C19.4531 6.77734 20.0977 7.42188 20.3906 8.24219ZM13.125 18.5547V18.6133C15.7617 18.6133 17.9297 16.4453 17.9297 13.8086V13.75C17.9297 11.1133 15.7617 8.94531 13.125 8.94531C10.4297 8.94531 8.32031 11.1133 8.32031 13.75C8.32031 16.4453 10.4297 18.5547 13.125 18.5547ZM18.1055 9.88281C18.6914 9.88281 19.2188 9.41406 19.2188 8.76953C19.2188 8.125 18.6914 7.65625 18.1055 7.65625C17.4609 7.65625 16.9922 8.125 16.9922 8.76953C16.9922 9.41406 17.4609 9.88281 18.1055 9.88281ZM23.4375 0.625C24.9609 0.625 26.25 1.91406 26.25 3.4375V24.0625C26.25 25.6445 24.9609 26.875 23.4375 26.875H2.8125C1.23047 26.875 0 25.6445 0 24.0625V3.4375C0 1.91406 1.23047 0.625 2.8125 0.625H23.4375ZM22.3828 17.6172C22.5 16.0938 22.5 11.4648 22.3828 9.94141C22.3242 8.41797 21.9727 7.07031 20.918 6.01562C19.8047 4.90234 18.457 4.55078 16.9922 4.49219C15.4102 4.375 10.7812 4.375 9.25781 4.49219C7.73438 4.55078 6.38672 4.90234 5.33203 5.95703C4.21875 7.07031 3.86719 8.41797 3.80859 9.88281C3.69141 11.4648 3.69141 16.0938 3.80859 17.6172C3.86719 19.1406 4.21875 20.4883 5.33203 21.543C6.38672 22.6562 7.73438 23.0078 9.25781 23.0664C10.7812 23.1836 15.4102 23.1836 16.9922 23.0664C18.457 23.0078 19.8047 22.6562 20.918 21.543C21.9727 20.4883 22.3242 19.1406 22.3828 17.6172Z" fill="#757575"/>
</svg>
