<svg width="27" height="27" viewBox="0 0 27 27" fill="none" xmlns="http://www.w3.org/2000/svg">
<path d="M24.375 0.625C25.3711 0.625 26.25 1.50391 26.25 2.55859V25C26.25 26.0547 25.3711 26.875 24.375 26.875H1.81641C0.820312 26.875 0 26.0547 0 25V2.55859C0 1.50391 0.820312 0.625 1.81641 0.625H24.375ZM7.91016 23.125V10.6445H4.04297V23.125H7.91016ZM5.97656 8.88672C7.20703 8.88672 8.20312 7.89062 8.20312 6.66016C8.20312 5.42969 7.20703 4.375 5.97656 4.375C4.6875 4.375 3.69141 5.42969 3.69141 6.66016C3.69141 7.89062 4.6875 8.88672 5.97656 8.88672ZM22.5 23.125V16.2695C22.5 12.9297 21.7383 10.293 17.8125 10.293C15.9375 10.293 14.6484 11.3477 14.1211 12.3438H14.0625V10.6445H10.3711V23.125H14.2383V16.9727C14.2383 15.332 14.5312 13.75 16.582 13.75C18.5742 13.75 18.5742 15.625 18.5742 17.0312V23.125H22.5Z" fill="#757575"/>
</svg>
