<svg width="27" height="27" viewBox="0 0 27 27" fill="none" xmlns="http://www.w3.org/2000/svg">
<path d="M23.4375 0.625C24.9609 0.625 26.25 1.91406 26.25 3.4375V24.0625C26.25 25.6445 24.9609 26.875 23.4375 26.875H2.8125C1.23047 26.875 0 25.6445 0 24.0625V3.4375C0 1.91406 1.23047 0.625 2.8125 0.625H23.4375ZM20.5664 9.94141C21.2695 9.41406 21.9727 8.71094 22.5 7.94922C21.7969 8.24219 21.0352 8.47656 20.2734 8.53516C21.0352 8.06641 21.6797 7.36328 21.9727 6.42578C21.2109 6.89453 20.3906 7.1875 19.5117 7.36328C18.8086 6.60156 17.8125 6.13281 16.6992 6.13281C14.3555 6.13281 12.4219 8.30078 12.9492 10.8789C9.78516 10.7031 6.91406 9.17969 5.03906 6.83594C4.6875 7.42188 4.51172 8.06641 4.51172 8.82812C4.51172 10.1172 5.15625 11.2891 6.21094 11.9922C5.56641 11.9922 4.98047 11.8164 4.51172 11.5234V11.582C4.51172 13.457 5.80078 14.9805 7.55859 15.332C6.97266 15.5078 6.44531 15.5078 5.80078 15.3906C6.32812 16.9141 7.73438 18.0273 9.43359 18.0859C8.08594 19.082 6.44531 19.7266 4.62891 19.7266C4.33594 19.7266 4.04297 19.7266 3.75 19.668C5.44922 20.7812 7.44141 21.3672 9.60938 21.3672C16.6992 21.3672 20.5664 15.5078 20.5664 10.4688C20.5664 10.293 20.5664 10.1172 20.5664 9.94141Z" fill="#757575"/>
</svg>
