<svg width="17" height="17" viewBox="0 0 17 17" fill="none" xmlns="http://www.w3.org/2000/svg">
<rect x="0.292725" y="0.893921" width="16.0256" height="16.0256" rx="2.67093" fill="#E8F5E9"/>
<g clip-path="url(#clip0_212_1586)">
<path fill-rule="evenodd" clip-rule="evenodd" d="M3.74931 0.958862C5.59319 0.958862 7.08798 2.45363 7.08798 4.29753V0.958862H10.4266C12.2705 0.958862 13.7653 2.45363 13.7653 4.29753C13.7653 6.14141 12.2705 7.63619 10.4266 7.63619C12.2705 7.63619 13.7653 9.13098 13.7653 10.9749C13.7653 11.8904 13.3968 12.7199 12.7999 13.3231L12.7874 13.3357L12.7764 13.3467C12.1731 13.9444 11.343 14.3135 10.4266 14.3135C9.51655 14.3135 8.6915 13.9494 8.08924 13.3588C8.08143 13.3512 8.07362 13.3434 8.06584 13.3357C8.05853 13.3284 8.05125 13.321 8.044 13.3136C7.45269 12.7113 7.08798 11.8856 7.08798 10.9749C7.08798 12.8187 5.59319 14.3135 3.74931 14.3135C1.90542 14.3135 0.410645 12.8187 0.410645 10.9749V7.63619H3.74931C1.90542 7.63619 0.410645 6.14141 0.410645 4.29753C0.410645 2.45363 1.90542 0.958862 3.74931 0.958862ZM6.42024 4.29753C6.42024 5.77265 5.22443 6.96846 3.74931 6.96846V1.6266C5.22443 1.6266 6.42024 2.82241 6.42024 4.29753ZM13.0976 10.9749C13.0976 9.49974 11.9018 8.30393 10.4266 8.30393C8.95152 8.30393 7.75571 9.49974 7.75571 10.9749H13.0976ZM1.07838 8.30393V10.9749C1.07838 12.45 2.27419 13.6458 3.74931 13.6458C5.22443 13.6458 6.42024 12.45 6.42024 10.9749V8.30393H1.07838ZM7.75571 6.96846V1.6266H10.4266C11.9018 1.6266 13.0976 2.82241 13.0976 4.29753C13.0976 5.77265 11.9018 6.96846 10.4266 6.96846H7.75571Z" fill="#5417D7"/>
</g>
<defs>
<clipPath id="clip0_212_1586">
<rect width="13.3547" height="13.3547" fill="white" transform="translate(0.410645 0.958862)"/>
</clipPath>
</defs>
</svg>
