<svg width="14" height="10" viewBox="0 0 14 10" fill="none" xmlns="http://www.w3.org/2000/svg">
<path fill-rule="evenodd" clip-rule="evenodd" d="M3.37823 1.55513L0.0443115 4.85553C0.711156 5.51568 1.47292 6.07204 2.30347 6.5073C2.53303 7.11013 2.89287 7.67547 3.38298 8.16064C5.22689 9.98599 8.21643 9.98599 10.0603 8.16064C10.5504 7.67547 10.9103 7.11013 11.1398 6.50727C11.9704 6.07204 12.7321 5.51568 13.399 4.85553L10.0678 1.55781C10.0653 1.55535 10.0628 1.55288 10.0603 1.55042C8.21643 -0.274943 5.22689 -0.274943 3.38298 1.55042C3.3814 1.55199 3.37981 1.55356 3.37823 1.55513ZM9.7413 7.10275C8.76975 7.42734 7.74985 7.59357 6.72164 7.59357C5.69343 7.59357 4.67357 7.42734 3.70202 7.10275C3.80729 7.241 3.92351 7.37368 4.05071 7.49962C5.52583 8.95992 7.91745 8.95992 9.39257 7.49962C9.51978 7.37368 9.63603 7.241 9.7413 7.10275ZM4.11919 2.14533C4.36969 2.30916 4.63604 2.44936 4.91476 2.56365C5.48761 2.79855 6.10159 2.91945 6.72164 2.91945C7.3417 2.91945 7.95568 2.79855 8.52853 2.56365C8.80724 2.44936 9.0736 2.30916 9.32413 2.14533C7.86741 0.773184 5.57588 0.773188 4.11919 2.14533Z" fill="#3B4158"/>
</svg>
