<svg width="20" height="11" viewBox="0 0 20 11" fill="none" xmlns="http://www.w3.org/2000/svg">
<g clip-path="url(#clip0_212_1593)">
<path d="M19.0822 4.40977C19.0841 4.39585 19.0841 4.38178 19.0822 4.36786C19.084 4.35651 19.084 4.34494 19.0822 4.33358L18.9461 3.35446C18.9265 3.23732 18.874 3.12784 18.7946 3.03825L18.7713 3.01158L18.7285 2.96967L16.3736 0.980972L16.4396 1.04574C16.3856 0.982348 16.3178 0.93164 16.2411 0.897354C16.1644 0.863069 16.0809 0.846078 15.9966 0.847634H15.2816C15.1653 0.845375 15.0517 0.881617 14.959 0.950499C14.8618 0.882032 14.7446 0.845975 14.6248 0.847634H13.9098C13.816 0.846142 13.7235 0.86896 13.6416 0.913783C13.5597 0.958606 13.4914 1.02384 13.4435 1.10289C13.3696 1.21578 13.3419 1.35181 13.3658 1.48387L13.4551 2.10105C13.3959 2.06814 13.3289 2.05106 13.2608 2.05152H9.79835C9.67412 2.05229 9.55275 2.08799 9.44859 2.15438C9.34788 2.21619 9.26703 2.30468 9.21544 2.40964L8.94729 2.18486C8.84176 2.08913 8.70246 2.03724 8.55869 2.04009H3.12597C3.0013 2.04232 2.8794 2.07646 2.77234 2.13915C2.62589 2.22319 2.51855 2.35983 2.47311 2.52012L0.747696 8.17764C0.715457 8.27086 0.712285 8.3714 0.738588 8.4664C0.76489 8.56138 0.819474 8.64656 0.895368 8.71102C0.915143 8.72744 0.935908 8.74272 0.957546 8.75672C0.957546 8.75672 0.922566 8.73385 0.903136 8.71482L3.2581 10.7073C3.35772 10.7972 3.48797 10.8475 3.62337 10.8483H9.09886C9.2239 10.8451 9.34589 10.8096 9.45249 10.7454C9.51278 10.7131 9.56672 10.6705 9.61182 10.6197L9.63125 10.593L9.66234 10.5549L9.68565 10.513L9.94214 10.7302C10.0403 10.8165 10.1677 10.864 10.2997 10.8635H15.7868C15.9117 10.8594 16.0334 10.824 16.1404 10.7607C16.1993 10.7264 16.253 10.684 16.2998 10.6349L16.3192 10.6083L16.3502 10.5702C16.3668 10.5461 16.3811 10.5206 16.393 10.494C16.4057 10.4709 16.4161 10.4466 16.4241 10.4216L17.9979 5.25555V5.20983C17.9999 5.1921 17.9999 5.17422 17.9979 5.15649V5.12221C17.9998 5.11084 17.9998 5.09927 17.9979 5.08791C17.9997 5.06382 17.9997 5.03963 17.9979 5.01552H18.5031C18.5471 5.01947 18.5913 5.01947 18.6353 5.01552H18.6702C18.6987 5.0072 18.7261 4.99568 18.7519 4.98124H18.7907L18.8607 4.9279L18.8917 4.90504L18.9461 4.83645V4.81362L18.985 4.74884C18.9828 4.73624 18.9828 4.72335 18.985 4.71075C18.9829 4.70457 18.9829 4.69788 18.985 4.6917C18.9933 4.66936 18.9998 4.64643 19.0044 4.62311C19.0026 4.6156 19.0026 4.60776 19.0044 4.60025C19.0026 4.58891 19.0026 4.57732 19.0044 4.56597C19.0044 4.56597 19.0822 4.41739 19.0822 4.40977Z" fill="black"/>
<path d="M8.71798 2.47447C8.73861 2.49275 8.75302 2.5168 8.75927 2.54337C8.76554 2.56994 8.76333 2.59774 8.75297 2.62304L7.03145 8.27675C7.00977 8.33847 6.96542 8.39008 6.90709 8.42153C6.85963 8.45266 6.80469 8.47103 6.74774 8.47487H1.27617C1.22945 8.47266 1.18518 8.45368 1.15182 8.42153C1.13197 8.40353 1.11804 8.38014 1.11181 8.35437C1.10558 8.32858 1.10734 8.30156 1.11684 8.27675L2.84226 2.62304C2.86214 2.56054 2.90509 2.50756 2.96272 2.47447C3.01097 2.44557 3.06564 2.42858 3.12205 2.42494H8.59362C8.63999 2.42537 8.68444 2.44308 8.71798 2.47447ZM5.86172 7.13763L6.89153 3.76216H4.00809L2.98215 7.13763H5.86172ZM13.9409 2.53161C13.9595 2.55288 13.9829 2.56974 14.0091 2.58096C14.0353 2.59217 14.0638 2.59744 14.0924 2.59637H14.8036C14.8307 2.59664 14.8573 2.59012 14.8812 2.57746C14.9049 2.56479 14.925 2.54639 14.9396 2.52399C14.9522 2.50649 14.9611 2.48668 14.9658 2.46574C14.9705 2.4448 14.9708 2.42315 14.9668 2.40208L14.8269 1.3963C14.8136 1.34975 14.7896 1.30677 14.7569 1.27057C14.7383 1.24931 14.7149 1.23244 14.6887 1.22123C14.6625 1.21001 14.634 1.20474 14.6054 1.20581H13.8942C13.8672 1.20555 13.8404 1.21206 13.8167 1.22473C13.7929 1.23739 13.7727 1.25579 13.7582 1.2782C13.731 1.33153 13.7194 1.36582 13.731 1.3963L13.8748 2.40208C13.8822 2.45105 13.9053 2.49643 13.9409 2.53161ZM16.1987 1.38868C16.1853 1.34213 16.1614 1.29914 16.1287 1.26296C16.1108 1.24176 16.0882 1.2249 16.0626 1.21367C16.037 1.20244 16.0091 1.19714 15.9811 1.19819H15.266C15.2394 1.19745 15.213 1.20378 15.1898 1.21652C15.1665 1.22927 15.1472 1.24795 15.1339 1.27057C15.108 1.30437 15.0968 1.34683 15.1028 1.38868L15.2466 2.39446C15.2556 2.44291 15.2785 2.48785 15.3126 2.52399C15.3316 2.54484 15.355 2.56143 15.3812 2.5726C15.4074 2.58378 15.4357 2.58929 15.4642 2.58875H16.1792C16.2058 2.5891 16.232 2.5826 16.2552 2.56989C16.2784 2.55718 16.2978 2.53873 16.3114 2.51637C16.3249 2.49933 16.3343 2.47953 16.339 2.45843C16.3438 2.43734 16.3436 2.41548 16.3386 2.39446L16.1987 1.38868ZM13.3152 2.91259L13.2452 2.41732H9.79832C9.7442 2.42024 9.69184 2.43735 9.64675 2.46684C9.61813 2.48215 9.59322 2.50335 9.57376 2.529C9.55432 2.55466 9.54078 2.58414 9.53407 2.61543L9.24649 3.56024C9.23502 3.58385 9.23109 3.61035 9.23525 3.63619C9.23943 3.66203 9.25147 3.68602 9.2698 3.70502C9.30258 3.73522 9.34535 3.75282 9.39028 3.75455H13.5795L12.5497 7.13002H8.37213C8.31826 7.13122 8.2658 7.14705 8.22058 7.17572C8.16562 7.20995 8.12548 7.26286 8.10788 7.3243L7.81643 8.26914C7.80691 8.29338 7.80441 8.31972 7.80921 8.34526C7.81403 8.37082 7.82591 8.39456 7.84361 8.41389C7.87536 8.44612 7.91847 8.4652 7.96409 8.46723H13.4512C13.508 8.46245 13.5627 8.44414 13.6105 8.41389C13.6679 8.38229 13.711 8.33059 13.731 8.26914L15.3087 3.10308H13.5328C13.5046 3.10362 13.4767 3.09849 13.4506 3.08801C13.4245 3.07752 13.4009 3.0619 13.3813 3.04212C13.3491 3.00757 13.3264 2.96564 13.3152 2.92021V2.91259Z" fill="white"/>
</g>
<defs>
<clipPath id="clip0_212_1593">
<rect width="18.3627" height="10.016" fill="white" transform="translate(0.720947 0.847534)"/>
</clipPath>
</defs>
</svg>
