<svg width="17" height="10" viewBox="0 0 17 10" fill="none" xmlns="http://www.w3.org/2000/svg">
<g clip-path="url(#clip0_212_1597)">
<path d="M15.124 1.37156C15.124 1.38285 15.124 1.39696 15.121 1.40543C15.1063 1.5155 15.1063 1.62557 15.1151 1.73846C15.121 1.76669 15.1269 1.79491 15.1504 1.81749C15.1887 1.85982 15.2475 1.85136 15.271 1.80055C15.2828 1.77515 15.2828 1.74975 15.2769 1.72435C15.2475 1.6171 15.2416 1.50421 15.2387 1.39414C15.2387 1.38849 15.2387 1.38003 15.2387 1.37156C15.271 1.36874 15.3004 1.36591 15.3269 1.36591C15.3475 1.36309 15.3651 1.36027 15.3798 1.3518C15.4239 1.32922 15.4239 1.28125 15.3769 1.25867C15.3592 1.2502 15.3357 1.24738 15.3151 1.24738C15.2416 1.2502 15.1681 1.2502 15.0946 1.2502C15.0681 1.2502 15.0416 1.25302 15.0152 1.25584C15.0005 1.25867 14.9828 1.25867 14.9711 1.26713C14.9505 1.2756 14.9387 1.28971 14.9387 1.30947C14.9417 1.32922 14.9505 1.34051 14.9711 1.34898C14.9828 1.35745 14.9975 1.36027 15.0122 1.36027C15.0475 1.36309 15.0858 1.36874 15.124 1.37156ZM15.9326 1.50139C15.9326 1.50421 15.9356 1.50703 15.9356 1.50703C15.9473 1.58323 15.9591 1.65661 15.9679 1.72999C15.9709 1.75539 15.9738 1.77797 15.9915 1.79773C16.0297 1.84571 16.0885 1.84006 16.115 1.78926C16.1267 1.76386 16.1297 1.73846 16.1238 1.71024C16.1061 1.62557 16.0973 1.5409 16.0797 1.45905C16.0679 1.40825 16.0532 1.36027 16.0385 1.31511C16.0297 1.28689 16.0091 1.26713 15.9738 1.26431C15.9385 1.25867 15.9121 1.2756 15.8974 1.301C15.8797 1.32358 15.865 1.34616 15.8532 1.37156C15.8327 1.41672 15.815 1.46187 15.7915 1.50421C15.7885 1.5155 15.7856 1.52397 15.7797 1.53243C15.7768 1.52679 15.7739 1.52397 15.7739 1.52397C15.7356 1.45341 15.7003 1.38285 15.6621 1.31511C15.6562 1.30947 15.6533 1.30382 15.6503 1.29818C15.6327 1.27278 15.6121 1.25867 15.5798 1.25867C15.5504 1.26149 15.5268 1.27842 15.5121 1.30382C15.5062 1.31511 15.5062 1.32358 15.5033 1.33487C15.4915 1.42518 15.4768 1.5155 15.4651 1.60581C15.4592 1.65661 15.4563 1.70742 15.4563 1.75822C15.4533 1.76951 15.4563 1.78362 15.4621 1.79491C15.468 1.81749 15.4857 1.8316 15.5092 1.83442C15.5386 1.83724 15.5592 1.82878 15.568 1.8062C15.5768 1.78926 15.5798 1.77515 15.5827 1.76104C15.5945 1.71024 15.6033 1.66226 15.6121 1.61428C15.618 1.58606 15.6209 1.56348 15.6298 1.53243C15.6356 1.54372 15.6415 1.55219 15.6474 1.56065C15.6739 1.59452 15.7003 1.62839 15.7327 1.65661C15.765 1.67919 15.7915 1.67637 15.8179 1.65097C15.8238 1.64532 15.8268 1.6425 15.8327 1.63686C15.8591 1.59734 15.8915 1.55783 15.9179 1.51832C15.9238 1.51267 15.9268 1.50703 15.9326 1.50139Z" fill="#3A3B7B"/>
<path d="M9.15711 1.42697C9.13667 1.48061 9.13277 1.51925 9.1422 1.55137C9.15263 1.59504 9.17968 1.60934 9.2164 1.59823C9.5618 1.51626 10.3192 1.74894 10.5996 1.81379C10.6657 1.82741 10.7195 1.74547 10.6744 1.67201C10.6086 1.60087 9.85149 1.29628 9.56263 1.27968C9.4494 1.27353 9.24698 1.24567 9.15711 1.42697Z" fill="#3A3B7B"/>
<path d="M12.1172 0.440996C12.154 0.461388 12.1746 0.48084 12.1848 0.502574C12.1999 0.531084 12.1919 0.550809 12.1665 0.560874C11.9382 0.667822 11.6344 1.12825 11.5117 1.28705C11.482 1.32358 11.4134 1.30235 11.4031 1.24228C11.4052 1.17436 11.6745 0.674685 11.8248 0.538592C11.8839 0.485457 11.9815 0.381199 12.1172 0.440996Z" fill="#3A3B7B"/>
<path d="M10.2989 0.214359C10.3432 0.182369 10.3891 0.171159 10.4126 0.191948C10.7571 0.474699 10.9398 0.92246 11.0529 1.33238C11.0571 1.34193 11.0574 1.35563 11.054 1.36993C11.0526 1.38215 11.0433 1.39505 11.0285 1.40504C11.0127 1.41607 10.9991 1.41943 10.9927 1.40992C10.8418 1.21283 9.97947 0.445987 10.2989 0.214359Z" fill="#3A3B7B"/>
<path d="M3.00424 5.11655C3.0868 5.05755 3.17656 5.00844 3.27154 4.97033C3.37091 4.94306 3.47683 4.94757 3.57329 4.98322C3.66973 5.01887 3.75148 5.08367 3.80614 5.16786C3.85503 5.25183 3.87415 5.34879 3.86065 5.44411C3.84716 5.53942 3.80176 5.62794 3.73129 5.69635C3.67666 5.75181 3.61463 5.80011 3.54686 5.84002C3.24482 6.02731 2.94009 6.20431 2.63537 6.3916C2.57302 6.43847 2.50687 6.48052 2.43757 6.51731C2.33215 6.56777 2.21167 6.58128 2.09697 6.55551C1.98226 6.52977 1.88055 6.46633 1.80941 6.37622C1.75623 6.3124 1.71135 6.24262 1.67576 6.1684C1.38708 5.58604 1.0877 5.00624 0.809712 4.4136C0.681408 4.15707 0.577161 3.86203 0.475588 3.57727C0.431642 3.49453 0.423061 3.39861 0.45167 3.30988C0.48028 3.22116 0.543824 3.14665 0.628784 3.1022C0.713746 3.05775 0.81342 3.04688 0.906611 3.07188C0.999802 3.09688 1.07916 3.15578 1.1278 3.23606C1.27731 3.42675 1.40965 3.62931 1.5234 3.84152C1.81208 4.35461 2.0874 4.8677 2.36539 5.3654C2.38158 5.39291 2.39943 5.41945 2.41885 5.44493C2.62809 5.36049 2.82489 5.2501 3.00424 5.11655Z" fill="#3A3B7B"/>
<path d="M5.98902 4.93756C5.3288 5.67897 4.22217 5.49168 3.66619 4.53733C3.27058 3.86005 3.20109 2.7415 4.0618 2.03599C4.2456 1.88829 4.46537 1.78767 4.70064 1.74353C4.98909 1.70384 5.28325 1.75268 5.54104 1.88308C5.79883 2.01347 6.00708 2.21874 6.13605 2.46956C6.60649 3.29052 6.53966 4.33722 5.98902 4.93756ZM5.72172 3.20842C5.65158 3.00668 5.51087 2.83445 5.32344 2.72097C5.21739 2.64842 5.08851 2.61314 4.95854 2.62109C4.82854 2.62903 4.70539 2.67971 4.60976 2.76458C4.22753 3.09041 4.14732 3.86262 4.42531 4.32184C4.46075 4.39672 4.51278 4.46327 4.57781 4.51683C4.64284 4.57039 4.71929 4.60966 4.80178 4.63189C4.88427 4.65414 4.97082 4.6588 5.0554 4.64558C5.13998 4.63233 5.2205 4.60152 5.29138 4.55529C5.49858 4.4011 5.65059 4.1888 5.72627 3.94789C5.80197 3.70696 5.79758 3.44939 5.71372 3.21099L5.72172 3.20842Z" fill="#3A3B7B"/>
<path d="M8.68345 3.53167C8.61586 3.54563 8.54603 3.54646 8.47808 3.53412C8.41016 3.52177 8.34547 3.49653 8.28786 3.45985C8.23744 3.43217 8.19404 3.39412 8.16078 3.34842C8.12753 3.30271 8.10525 3.25052 8.09554 3.19555C8.08581 3.1406 8.08893 3.08427 8.1046 3.0306C8.12029 2.97693 8.1482 2.92727 8.18629 2.88517C8.25264 2.80059 8.34683 2.74003 8.45358 2.71329C8.73229 2.63566 9.0192 2.58833 9.30894 2.5722C9.3726 2.56509 9.4371 2.57026 9.49863 2.5874C9.56019 2.60457 9.61753 2.63333 9.66734 2.67206C9.71713 2.71076 9.75837 2.75864 9.78864 2.81286C9.81888 2.86708 9.83755 2.92656 9.84353 2.9878C9.92706 3.28861 9.93621 3.604 9.87026 3.90882C9.6297 4.89395 8.80107 5.23258 7.87086 4.91703C7.60975 4.83267 7.38081 4.67546 7.21331 4.46552C6.9899 4.21268 6.83151 3.91304 6.75087 3.59069C6.68555 3.30364 6.6927 3.00578 6.77177 2.72194C6.85081 2.4381 6.99945 2.17652 7.20528 1.95904C7.40062 1.72267 7.65416 1.53665 7.94304 1.41773C8.12558 1.32116 8.33919 1.2937 8.54179 1.34076C8.58775 1.35297 8.62947 1.37676 8.66262 1.40966C8.69577 1.44256 8.71915 1.48337 8.73034 1.52787C8.74153 1.57236 8.74009 1.61892 8.72622 1.66271C8.71232 1.70649 8.68649 1.74592 8.65139 1.77689C8.58463 1.83489 8.51211 1.88645 8.43487 1.93082C8.19723 2.07607 7.99043 2.26323 7.82542 2.4824C7.71726 2.62422 7.64277 2.78707 7.60722 2.95948C7.57164 3.13189 7.57588 3.30969 7.61961 3.48038C7.68023 3.7131 7.81475 3.922 8.00451 4.07812C8.59257 4.59123 9.35705 4.09608 9.2234 3.39571C9.02828 3.44189 8.8572 3.49064 8.68345 3.53167Z" fill="#3A3B7B"/>
<path d="M12.2759 4.9786C11.4072 5.49171 10.4182 4.9786 10.2017 3.90112C10.044 3.13147 10.3433 2.05397 11.3912 1.64349C11.6141 1.55804 11.8559 1.52803 12.0941 1.55626C12.3804 1.60656 12.643 1.7418 12.8449 1.94294C13.0467 2.14408 13.1778 2.40096 13.2195 2.67738C13.3959 3.59325 12.9949 4.5707 12.2759 4.9786ZM12.578 3.25204C12.5777 3.03892 12.4991 2.83269 12.3561 2.66968C12.2796 2.56885 12.1691 2.49661 12.0433 2.46526C11.9176 2.43392 11.7844 2.44541 11.6665 2.4978C11.196 2.69276 10.8646 3.40084 10.9849 3.92165C10.994 4.00337 11.0217 4.08219 11.0659 4.15259C11.1102 4.22298 11.1699 4.28325 11.2409 4.3292C11.3119 4.37512 11.3926 4.40562 11.4771 4.41854C11.5617 4.43143 11.6483 4.42646 11.7306 4.40395C11.9793 4.32057 12.1946 4.16476 12.3465 3.95824C12.4984 3.75172 12.5793 3.50483 12.578 3.25204Z" fill="#3A3B7B"/>
<path d="M14.0981 5.19412C14.085 5.28802 14.0336 5.37307 13.9551 5.43057C13.8766 5.48804 13.7776 5.51328 13.6798 5.50069C13.5819 5.48811 13.4933 5.43873 13.4334 5.36343C13.3735 5.28815 13.3472 5.19309 13.3604 5.09919C13.3735 5.0053 13.4249 4.92025 13.5034 4.86275C13.5818 4.80525 13.6808 4.78004 13.7787 4.79262C13.8765 4.80521 13.9651 4.85457 14.025 4.92987C14.0849 5.00517 14.1112 5.10023 14.0981 5.19412ZM13.8655 1.73328C13.9164 1.65876 13.991 1.60202 14.0782 1.5715C14.1653 1.54099 14.2605 1.53834 14.3494 1.56396C14.4397 1.58566 14.5195 1.6365 14.5755 1.70795C14.6315 1.77941 14.6601 1.86715 14.6568 1.95648C14.645 2.09977 14.6226 2.24208 14.5899 2.38234C14.5017 2.85697 14.4162 3.33157 14.3226 3.80106C14.2799 3.98835 14.2237 4.16793 14.1622 4.35776C14.1409 4.41711 14.1051 4.47074 14.058 4.51426C14.0287 4.54701 13.9913 4.57211 13.9492 4.58727C13.9071 4.60246 13.8617 4.60719 13.8172 4.60105C13.7727 4.59491 13.7305 4.5781 13.6946 4.55218C13.6587 4.52623 13.6301 4.49202 13.6116 4.45269C13.5798 4.38214 13.5626 4.30634 13.5608 4.2295C13.5608 3.91137 13.5608 3.5907 13.5822 3.27C13.6186 2.81234 13.69 2.35787 13.796 1.9103C13.8085 1.85034 13.8321 1.793 13.8655 1.74098V1.73328Z" fill="#3A3B7B"/>
<path fill-rule="evenodd" clip-rule="evenodd" d="M1.87489 7.25572C1.84333 7.32334 1.83468 7.39873 1.8501 7.47128C1.86036 7.56691 1.8829 7.66098 1.91719 7.75133C1.96001 7.86197 2.00793 7.97138 2.06701 8.10623C2.0806 8.13725 2.0948 8.16964 2.10965 8.20373C2.18933 8.38641 2.2893 8.61989 2.42264 8.95777C2.46039 9.05376 2.4939 9.15053 2.52765 9.24797C2.54129 9.28734 2.55497 9.32683 2.56898 9.36642C2.61918 9.50716 2.70557 9.6336 2.82007 9.73381C2.86869 9.78889 2.93318 9.82903 3.0055 9.8491C3.07923 9.86956 3.15764 9.86826 3.23059 9.84538C3.30353 9.82247 3.3676 9.77903 3.41447 9.7207C3.46043 9.66351 3.48775 9.59459 3.49307 9.52259C3.52288 9.38233 3.5127 9.2369 3.46357 9.10168C3.38558 8.87717 3.29674 8.65232 3.1943 8.4324L3.19382 8.43144C3.0253 8.08737 2.85399 7.74568 2.67457 7.40385L2.67323 7.40146C2.62071 7.3124 2.55245 7.23279 2.47153 7.1662C2.41899 7.10677 2.34652 7.06667 2.2665 7.05285C2.18476 7.03875 2.10047 7.05296 2.02866 7.09299C1.96072 7.13022 1.90687 7.18719 1.87489 7.25572Z" fill="#3A3B7B"/>
<path fill-rule="evenodd" clip-rule="evenodd" d="M4.4489 6.40848C4.18465 6.3428 3.90868 6.33323 3.64022 6.38045C3.43228 6.4001 3.22777 6.44613 3.08576 6.53732C3.01353 6.58373 2.95514 6.64332 2.92266 6.71906C2.89 6.79522 2.88583 6.88231 2.91259 6.97935C2.96146 7.15711 3.02492 7.32994 3.08816 7.50221L3.0984 7.53011L3.09865 7.53073C3.28906 8.03121 3.48128 8.52999 3.67525 9.02706C3.69787 9.1054 3.72986 9.18096 3.77057 9.25223L3.77133 9.25356C3.82511 9.3421 3.89409 9.4213 3.97535 9.48782C4.01599 9.52439 4.06625 9.5497 4.12074 9.56101C4.17578 9.57241 4.23301 9.5691 4.2862 9.55141C4.33942 9.53374 4.38654 9.50239 4.42245 9.46075C4.45778 9.4198 4.48091 9.37047 4.48941 9.31796C4.52447 9.17533 4.51324 9.0258 4.4572 8.88946C4.43971 8.84358 4.42599 8.79669 4.41153 8.74733C4.40671 8.73087 4.40183 8.71413 4.39667 8.69707C4.84068 8.5305 5.31311 8.30651 5.47924 7.78544C5.5443 7.60537 5.54972 7.41039 5.49475 7.22722C5.43974 7.04385 5.32688 6.88132 5.17171 6.76201C4.96052 6.595 4.71382 6.47432 4.4489 6.40848ZM3.71643 7.04761C3.72518 7.04519 3.73399 7.04295 3.74282 7.04086C4.03188 6.99724 4.32763 7.05536 4.5756 7.20446C4.68488 7.27741 4.72965 7.35845 4.73734 7.43644C4.74527 7.51674 4.71485 7.60374 4.65375 7.68738C4.53828 7.84538 4.32756 7.97184 4.13722 7.99541C3.99846 7.6887 3.85755 7.36959 3.71643 7.04761Z" fill="#3A3B7B"/>
<path d="M6.21067 5.84711C6.52536 5.70762 6.91516 5.68353 7.22019 5.7816C7.29701 5.80308 7.36366 5.84953 7.40874 5.91302C7.45352 5.9761 7.47419 6.05213 7.46729 6.12813C7.46684 6.17747 7.45422 6.22601 7.43048 6.2698C7.40632 6.31438 7.37132 6.35272 7.32846 6.38159C7.2856 6.41043 7.23613 6.42898 7.18423 6.43561C7.13231 6.44225 7.07952 6.4368 7.03027 6.4197L7.02653 6.4184L7.02301 6.41662C6.99781 6.40396 6.97105 6.39444 6.94336 6.38823L6.94162 6.38786C6.72704 6.33315 6.52464 6.42379 6.45071 6.53516C6.41545 6.58826 6.41108 6.64186 6.44044 6.69062C6.4719 6.74284 6.54903 6.80144 6.70512 6.8432C6.74805 6.85451 6.79205 6.86543 6.83668 6.87652C6.96011 6.90719 7.08838 6.93906 7.21241 6.98322L7.21288 6.9834C7.78509 7.19235 7.99816 7.62512 7.92522 8.03217C7.85306 8.4347 7.5028 8.80104 6.97607 8.88745C6.78441 8.92823 6.58494 8.92028 6.39743 8.86441C6.20944 8.80837 6.03999 8.70611 5.90592 8.56774L5.90242 8.56414C5.8601 8.51201 5.83163 8.45077 5.81901 8.38579C5.8074 8.32714 5.81351 8.26654 5.8366 8.21111C5.85956 8.15601 5.89838 8.10833 5.94849 8.07358C6.00141 8.03419 6.06521 8.01056 6.13199 8.00563C6.19855 8.00072 6.26515 8.01461 6.32359 8.04555C6.38196 8.07261 6.43625 8.10714 6.48499 8.1482L6.48591 8.14895C6.57212 8.22462 6.67643 8.24434 6.77645 8.22608C6.87793 8.20755 6.97336 8.14992 7.03474 8.07345C7.09571 7.99747 7.12019 7.9072 7.09114 7.81958C7.0619 7.73132 6.97401 7.63243 6.78089 7.54976C6.73041 7.52918 6.67806 7.51259 6.62361 7.49644C6.60893 7.49208 6.594 7.48775 6.57889 7.48335C6.53863 7.47162 6.4972 7.45954 6.45658 7.44622C6.42861 7.43707 6.40086 7.4284 6.37337 7.4198C6.29825 7.39632 6.22502 7.37343 6.15454 7.34274C6.00114 7.29261 5.86862 7.19636 5.77668 7.06823C5.68437 6.93958 5.63792 6.78575 5.64425 6.62969C5.64474 6.24938 5.89431 5.98737 6.21067 5.84711Z" fill="#3A3B7B"/>
<path d="M10.2003 5.80657C10.1393 5.77797 10.0718 5.76439 10.004 5.76705C9.9361 5.76974 9.87002 5.78857 9.81167 5.82191C9.75367 5.85501 9.70512 5.90135 9.67033 5.95682C9.63843 6.00354 9.61635 6.05578 9.60534 6.11064C9.59434 6.16545 9.59461 6.22178 9.60611 6.27646C9.61747 6.34675 9.63007 6.41509 9.64251 6.48249C9.66311 6.59404 9.68315 6.70307 9.69638 6.81424L9.69687 6.81706C9.72698 6.9914 9.74274 7.16773 9.74415 7.34442L9.74428 7.34693C9.75457 7.53776 9.68683 7.72487 9.55558 7.86856L9.55349 7.87111C9.51079 7.92364 9.45369 7.96373 9.38857 7.9869C9.32347 8.01007 9.25295 8.0154 9.18487 8.00228C9.11679 7.98917 9.05387 7.95814 9.00312 7.91266C8.95237 7.86717 8.91576 7.80886 8.89749 7.74458C8.85848 7.6091 8.83591 7.46974 8.83017 7.32931L8.89679 6.3113C8.89778 6.29801 8.8989 6.28436 8.90004 6.27059C8.90258 6.23967 8.90518 6.20818 8.90625 6.17881C8.90782 6.13559 8.90648 6.09114 8.89599 6.04907C8.88525 6.00607 8.86483 5.96516 8.8286 5.93033C8.79274 5.89585 8.74432 5.87041 8.68339 5.85309C8.57321 5.82248 8.48004 5.82345 8.40241 5.85507C8.32474 5.88669 8.27152 5.9454 8.23386 6.01322C8.19649 6.08047 8.17249 6.16008 8.15433 6.23983C8.14086 6.299 8.13003 6.36112 8.11974 6.42024C8.11618 6.44062 8.1127 6.46062 8.10918 6.48005L8.10909 6.48062C8.05404 6.80489 8.03765 7.13412 8.06025 7.46195C8.06446 7.63911 8.10295 7.81399 8.17379 7.97764C8.2537 8.18879 8.39845 8.37174 8.58892 8.50234C8.7798 8.6332 9.00758 8.70531 9.2421 8.70912C9.47663 8.71293 9.70682 8.64826 9.90221 8.52369C10.0973 8.39929 10.2485 8.22101 10.3357 8.01243C10.4579 7.74672 10.5152 7.45775 10.5034 7.16755C10.4962 6.95569 10.4842 6.7422 10.4722 6.52978C10.4663 6.42559 10.4605 6.32162 10.4553 6.21828C10.4526 6.11466 10.417 6.0143 10.3532 5.93066C10.3137 5.87778 10.2612 5.83513 10.2003 5.80657Z" fill="#3A3B7B"/>
<path d="M12.3599 7.40282C12.3537 7.41037 12.3472 7.41818 12.3403 7.4263C12.2907 7.1515 12.2447 6.87679 12.1986 6.60167C12.1821 6.50295 12.1655 6.40382 12.1488 6.30497L12.1469 6.29395L12.1408 6.28442C12.1293 6.26649 12.1282 6.24891 12.1282 6.21141V6.20708L12.1275 6.20278C12.115 6.12535 12.0785 6.05328 12.0228 5.99603C11.9672 5.93892 11.895 5.89918 11.8156 5.88193C11.7363 5.86316 11.653 5.8673 11.5761 5.89384C11.4994 5.92031 11.4326 5.96788 11.384 6.0306C11.3435 6.07872 11.3104 6.1321 11.2855 6.18914C11.2291 6.31202 11.1723 6.4352 11.1152 6.55871L11.1143 6.56085C10.9719 6.8692 10.8286 7.17962 10.6894 7.49249L10.689 7.4935C10.6035 7.69636 10.533 7.91012 10.4627 8.12321C10.4487 8.16575 10.4347 8.20826 10.4205 8.25066C10.3952 8.31791 10.3841 8.38934 10.3879 8.46074C10.3832 8.52467 10.3992 8.58844 10.4336 8.64343C10.4686 8.69954 10.5212 8.74368 10.5837 8.76967C10.65 8.79757 10.7242 8.80349 10.7944 8.7865C10.8645 8.76954 10.9267 8.73072 10.9713 8.67615C11.0282 8.60893 11.0772 8.53561 11.1172 8.45793C11.235 8.22648 11.3477 7.99222 11.4599 7.75897C11.5033 7.66875 11.5454 7.58795 11.5934 7.49995C11.5967 7.5108 11.6001 7.52138 11.6035 7.53199C11.6538 7.74444 11.7387 7.94794 11.855 8.13503C11.877 8.17466 11.9077 8.2093 11.9449 8.23656C11.9825 8.26415 12.026 8.28352 12.0723 8.29335C12.1185 8.30319 12.1664 8.30323 12.2127 8.29349C12.2589 8.28376 12.3025 8.26437 12.3402 8.23691L12.4148 8.18333L12.9936 7.71535L12.9594 7.92473C12.9124 8.21253 12.8658 8.49793 12.8162 8.7834C12.7838 8.90993 12.7839 9.04209 12.8164 9.16858C12.8305 9.23976 12.8663 9.30529 12.9194 9.35683C12.9729 9.40878 13.0415 9.44407 13.1162 9.45816C13.1909 9.47222 13.2683 9.46443 13.3383 9.43576C13.4073 9.40753 13.466 9.3603 13.507 9.30012C13.6024 9.18646 13.6618 9.04887 13.6782 8.9037C13.7027 8.69871 13.7305 8.49091 13.7582 8.28319C13.7902 8.04375 13.8222 7.80438 13.8492 7.56961L13.8493 7.56889C13.8753 7.31189 13.8879 7.05384 13.887 6.79564C13.8927 6.71404 13.8716 6.63276 13.8265 6.56329C13.7812 6.49358 13.7142 6.43938 13.635 6.40838C13.5526 6.37242 13.4603 6.3628 13.3718 6.38098C13.2838 6.39902 13.2042 6.44352 13.1445 6.50797C13.0377 6.60274 12.9376 6.70416 12.8447 6.81157L12.844 6.8123C12.7426 6.93361 12.6419 7.0573 12.5418 7.18019C12.4809 7.2549 12.4202 7.32943 12.3599 7.40282Z" fill="#3A3B7B"/>
</g>
<defs>
<clipPath id="clip0_212_1597">
<rect width="15.6917" height="9.68213" fill="white" transform="translate(0.435059 0.181396)"/>
</clipPath>
</defs>
</svg>
