<svg width="14" height="10" viewBox="0 0 14 10" fill="none" xmlns="http://www.w3.org/2000/svg">
<g clip-path="url(#clip0_212_1613)">
<path d="M12.9822 0.797019C12.9822 0.952598 13.1098 1.07872 13.2674 1.07872H13.5525C13.71 1.07872 13.8377 0.952598 13.8377 0.797019C13.8377 0.641441 13.71 0.51532 13.5525 0.51532H13.2674C13.1098 0.51532 12.9822 0.641441 12.9822 0.797019Z" fill="#212326"/>
<path d="M4.71201 9.52972H6.09736L5.69405 9.13133C5.5871 9.02568 5.44202 8.96632 5.29076 8.96632H4.71201C2.50702 8.96632 0.719525 7.20062 0.719525 5.02252C0.719525 2.84441 2.50702 1.07872 4.71201 1.07872H9.27486C11.4798 1.07872 13.2673 2.84441 13.2673 5.02252C13.2673 7.20062 11.4798 8.96632 9.27486 8.96632H7.56799C7.34108 8.96632 7.12348 8.87728 6.96302 8.7188L6.49054 8.25206C6.22314 7.98792 5.86044 7.83952 5.48227 7.83952H4.71201C3.13701 7.83952 1.86024 6.57831 1.86024 5.02252C1.86024 3.46672 3.13701 2.20552 4.71201 2.20552H9.27486C10.8499 2.20552 12.1266 3.46672 12.1266 5.02252C12.1266 6.57831 10.8499 7.83952 9.27486 7.83952H8.17888C7.95197 7.83952 7.73437 7.75048 7.57392 7.592L7.10141 7.12526C6.83401 6.86112 6.47133 6.71272 6.09316 6.71272H4.71201C3.76703 6.71272 3.00095 5.95598 3.00095 5.02252C3.00095 4.08905 3.76703 3.33232 4.71201 3.33232H9.27486C10.2198 3.33232 10.9859 4.08905 10.9859 5.02252C10.9859 5.9446 10.2384 6.69424 9.30935 6.71238L9.30917 6.71272H8.89183C8.66492 6.71272 8.44732 6.62368 8.28686 6.4652L7.81436 5.99846C7.59495 5.78171 7.3114 5.64291 7.00776 5.60007L6.99343 5.58592H4.71201C4.39702 5.58592 4.14166 5.33367 4.14166 5.02252C4.14166 4.71136 4.39702 4.45912 4.71201 4.45912H9.27486C9.58985 4.45912 9.84521 4.71136 9.84521 5.02252C9.84521 5.33367 9.58985 5.58592 9.27486 5.58592H8.13415L8.53745 5.98431C8.64441 6.08996 8.78948 6.14932 8.94074 6.14932H9.27486C9.90485 6.14932 10.4156 5.64483 10.4156 5.02252C10.4156 4.40021 9.90485 3.89572 9.27486 3.89572H4.71201C4.08202 3.89572 3.5713 4.40021 3.5713 5.02252C3.5713 5.64483 4.08202 6.14932 4.71201 6.14932H6.80611C7.03302 6.14932 7.25062 6.23836 7.41107 6.39683L7.88358 6.86357C8.15098 7.12772 8.51366 7.27612 8.89183 7.27612H9.41745V7.27179C10.611 7.19909 11.5563 6.21983 11.5563 5.02252C11.5563 3.7779 10.5348 2.76892 9.27486 2.76892H4.71201C3.45203 2.76892 2.43059 3.7779 2.43059 5.02252C2.43059 6.26716 3.45203 7.27612 4.71201 7.27612H6.09316C6.32007 7.27612 6.53768 7.36516 6.69813 7.52363L7.17063 7.99037C7.43804 8.25452 7.80072 8.40292 8.17888 8.40292H9.27486C11.1649 8.40292 12.697 6.88947 12.697 5.02252C12.697 3.15557 11.1649 1.64212 9.27486 1.64212H4.71201C2.82202 1.64212 1.28988 3.15557 1.28988 5.02252C1.28988 6.88947 2.82202 8.40292 4.71201 8.40292H5.48227C5.70918 8.40292 5.92678 8.49196 6.08723 8.65043L6.55974 9.11717C6.82714 9.38132 7.18982 9.52972 7.56799 9.52972H9.27486C11.7948 9.52972 13.8377 7.51178 13.8377 5.02252C13.8377 2.53326 11.7948 0.51532 9.27486 0.51532L4.71201 0.515321C2.19202 0.515321 0.14917 2.53326 0.14917 5.02252C0.14917 7.51178 2.19203 9.52972 4.71201 9.52972Z" fill="#212326"/>
</g>
<defs>
<clipPath id="clip0_212_1613">
<rect width="13.6885" height="9.0144" fill="white" transform="translate(0.14917 0.51532)"/>
</clipPath>
</defs>
</svg>
