<svg width="15" height="12" viewBox="0 0 15 12" fill="none" xmlns="http://www.w3.org/2000/svg">
<path d="M1.72529 3.89359V4.06053H1.89222H13.9114H14.0784V3.89359V3.14239C14.0784 2.76607 13.9289 2.40516 13.6628 2.13906C13.3967 1.87295 13.0357 1.72346 12.6594 1.72346H3.14422C2.7679 1.72346 2.40699 1.87295 2.14089 2.13906C1.87479 2.40516 1.72529 2.76607 1.72529 3.14239V3.89359ZM14.0784 4.89519V4.72826H13.9114H1.89222H1.72529V4.89519V9.65279C1.72529 10.0291 1.87479 10.39 2.14089 10.6561C2.40699 10.9222 2.7679 11.0717 3.14422 11.0717H12.6594C13.0357 11.0717 13.3967 10.9222 13.6628 10.6561C13.9289 10.39 14.0784 10.0291 14.0784 9.65279V4.89519ZM1.05756 3.14239C1.05756 2.58898 1.2774 2.05822 1.66873 1.6669C2.06005 1.27557 2.59081 1.05573 3.14422 1.05573H12.6594C13.2128 1.05573 13.7436 1.27557 14.1349 1.6669C14.5262 2.05822 14.7461 2.58898 14.7461 3.14239V9.65279C14.7461 10.2062 14.5262 10.737 14.1349 11.1283C13.7436 11.5196 13.2128 11.7395 12.6594 11.7395H3.14422C2.59081 11.7395 2.06005 11.5196 1.66873 11.1283C1.2774 10.737 1.05756 10.2062 1.05756 9.65279V3.14239ZM10.4058 8.06692H11.9082C11.9968 8.06692 12.0817 8.1021 12.1443 8.16471C12.2069 8.22732 12.2421 8.31224 12.2421 8.40079C12.2421 8.48934 12.2069 8.57426 12.1443 8.63687C12.0817 8.69948 11.9968 8.73466 11.9082 8.73466H10.4058C10.3173 8.73466 10.2324 8.69948 10.1697 8.63687C10.1071 8.57426 10.072 8.48934 10.072 8.40079C10.072 8.31224 10.1071 8.22732 10.1697 8.16471C10.2324 8.1021 10.3173 8.06692 10.4058 8.06692Z" fill="#4CAF4F" stroke="#4CAF4F" stroke-width="0.333867"/>
</svg>
