<svg width="28" height="29" viewBox="0 0 28 29" fill="none" xmlns="http://www.w3.org/2000/svg">
<g clip-path="url(#clip0_211_2047)">
<path fill-rule="evenodd" clip-rule="evenodd" d="M6.97907 0.679993C10.8233 0.679993 13.9398 3.7964 13.9398 7.64069V0.679993H20.9005C24.7447 0.679993 27.8612 3.7964 27.8612 7.64069C27.8612 11.4849 24.7447 14.6014 20.9005 14.6014C24.7447 14.6014 27.8612 17.7178 27.8612 21.5621C27.8612 23.4709 27.0928 25.2003 25.8485 26.4578L25.8224 26.4841L25.7993 26.507C24.5415 27.7531 22.8109 28.5228 20.9005 28.5228C19.003 28.5228 17.2829 27.7636 16.0273 26.5324C16.011 26.5164 15.9947 26.5002 15.9785 26.4841C15.9632 26.4688 15.9481 26.4535 15.933 26.4381C14.7001 25.1823 13.9398 23.461 13.9398 21.5621C13.9398 25.4063 10.8233 28.5228 6.97907 28.5228C3.13478 28.5228 0.0183716 25.4063 0.0183716 21.5621V14.6014H6.97907C3.13478 14.6014 0.0183716 11.4849 0.0183716 7.64069C0.0183716 3.7964 3.13478 0.679993 6.97907 0.679993ZM12.5476 7.64069C12.5476 10.7161 10.0545 13.2092 6.97907 13.2092V2.07213C10.0545 2.07213 12.5476 4.56526 12.5476 7.64069ZM26.469 21.5621C26.469 18.4866 23.9759 15.9935 20.9005 15.9935C17.825 15.9935 15.3319 18.4866 15.3319 21.5621H26.469ZM1.41051 15.9935V21.5621C1.41051 24.6375 3.90364 27.1306 6.97907 27.1306C10.0545 27.1306 12.5476 24.6375 12.5476 21.5621V15.9935H1.41051ZM15.3319 13.2092V2.07213H20.9005C23.9759 2.07213 26.469 4.56526 26.469 7.64069C26.469 10.7161 23.9759 13.2092 20.9005 13.2092H15.3319Z" fill="#263238"/>
</g>
<defs>
<clipPath id="clip0_211_2047">
<rect width="27.8428" height="27.8428" fill="white" transform="translate(0.0183716 0.679993)"/>
</clipPath>
</defs>
</svg>
