<svg width="39" height="21" viewBox="0 0 39 21" fill="none" xmlns="http://www.w3.org/2000/svg">
<g clip-path="url(#clip0_211_2053)">
<path d="M38.5802 7.48053C38.5842 7.4515 38.5842 7.42216 38.5802 7.39314C38.584 7.36949 38.584 7.34537 38.5802 7.32167L38.2966 5.28034C38.2557 5.03612 38.1463 4.80786 37.9807 4.62108L37.932 4.56548L37.8429 4.4781L32.9331 0.331912L33.0709 0.466952C32.9582 0.33478 32.8167 0.22906 32.6569 0.15758C32.4971 0.0860993 32.3229 0.0506743 32.1473 0.0539184H30.6565C30.4141 0.0492097 30.1772 0.12477 29.984 0.26838C29.7812 0.125635 29.5369 0.0504613 29.2872 0.0539184H27.7965C27.601 0.0508085 27.4081 0.0983802 27.2374 0.191831C27.0666 0.285281 26.9241 0.421293 26.8243 0.586089C26.6703 0.821467 26.6124 1.10506 26.6622 1.38038L26.8486 2.66712C26.7251 2.59852 26.5854 2.56292 26.4435 2.56388H19.2246C18.9656 2.56547 18.7126 2.63989 18.4954 2.77833C18.2854 2.90718 18.1169 3.09168 18.0093 3.3105L17.4503 2.84187C17.2302 2.64229 16.9398 2.53411 16.6401 2.54005H5.31354C5.05362 2.54469 4.79947 2.61587 4.57628 2.74656C4.27094 2.92177 4.04716 3.20666 3.95241 3.54085L0.355144 15.3361C0.28793 15.5304 0.281318 15.74 0.336155 15.9381C0.390992 16.1361 0.504794 16.3137 0.663022 16.4481C0.704252 16.4823 0.747543 16.5142 0.792657 16.5434C0.792657 16.5434 0.719727 16.4957 0.679217 16.456L5.58903 20.6101C5.79672 20.7976 6.06827 20.9024 6.35056 20.904H17.7663C18.027 20.8974 18.2813 20.8234 18.5035 20.6895C18.6292 20.6222 18.7417 20.5334 18.8357 20.4274L18.8762 20.3718L18.941 20.2924L18.9896 20.205L19.5244 20.6578C19.7291 20.8378 19.9948 20.9368 20.2698 20.9358H31.7097C31.9701 20.9273 32.224 20.8535 32.447 20.7213C32.5699 20.6499 32.6817 20.5616 32.7792 20.4592L32.8197 20.4036L32.8845 20.3242C32.9189 20.2739 32.9488 20.2208 32.9736 20.1653C33.0001 20.1172 33.0218 20.0666 33.0384 20.0144L36.3197 9.24387V9.14854C36.3238 9.11158 36.3238 9.0743 36.3197 9.03734V8.96587C36.3237 8.94217 36.3237 8.91805 36.3197 8.89435C36.3234 8.84413 36.3234 8.7937 36.3197 8.74342H37.373C37.4646 8.75167 37.5568 8.75167 37.6484 8.74342H37.7214C37.7807 8.72609 37.8378 8.70208 37.8915 8.67196H37.9726L38.1184 8.56076L38.1832 8.51309L38.2966 8.3701V8.32249L38.3776 8.18744C38.3731 8.16118 38.3731 8.13429 38.3776 8.10804C38.3733 8.09514 38.3733 8.0812 38.3776 8.06831C38.3949 8.02174 38.4084 7.97392 38.4182 7.92532C38.4144 7.90966 38.4144 7.89332 38.4182 7.87765C38.4142 7.854 38.4142 7.82983 38.4182 7.80618C38.4182 7.80618 38.5802 7.4964 38.5802 7.48053Z" fill="black"/>
<path d="M16.9723 3.44557C17.0153 3.4837 17.0453 3.53384 17.0584 3.58923C17.0714 3.64462 17.0668 3.70259 17.0452 3.75534L13.4561 15.5426C13.4109 15.6713 13.3184 15.7789 13.1968 15.8444C13.0978 15.9093 12.9833 15.9477 12.8646 15.9556H1.45705C1.35963 15.951 1.26733 15.9115 1.19778 15.8444C1.15641 15.8069 1.12737 15.7582 1.11438 15.7044C1.10139 15.6507 1.10505 15.5943 1.12487 15.5426L4.72214 3.75534C4.76358 3.62502 4.85314 3.51456 4.97329 3.44557C5.07388 3.38533 5.18787 3.3499 5.30548 3.34231H16.713C16.8097 3.34322 16.9024 3.38014 16.9723 3.44557ZM11.0173 13.1677L13.1644 6.13026H7.15274L5.0138 13.1677H11.0173ZM27.8613 3.56471C27.9002 3.60905 27.9489 3.64422 28.0036 3.66759C28.0583 3.69097 28.1177 3.70196 28.1773 3.69974H29.66C29.7164 3.70028 29.772 3.6867 29.8217 3.6603C29.8713 3.63389 29.9132 3.59552 29.9435 3.54882C29.9698 3.51234 29.9885 3.47104 29.9982 3.42738C30.0079 3.38372 30.0086 3.33858 30.0002 3.29465L29.7086 1.19773C29.6808 1.10068 29.6309 1.01106 29.5628 0.93561C29.5238 0.891267 29.4752 0.856102 29.4205 0.832724C29.3658 0.809347 29.3064 0.798363 29.2468 0.800582H27.7641C27.7076 0.800044 27.652 0.813617 27.6024 0.840023C27.5528 0.866428 27.5108 0.904794 27.4805 0.951502C27.4238 1.0627 27.3995 1.13418 27.4238 1.19773L27.7236 3.29465C27.739 3.39676 27.7872 3.49137 27.8613 3.56471ZM32.5686 1.18184C32.5408 1.08479 32.4909 0.995171 32.4227 0.919724C32.3854 0.875543 32.3382 0.840388 32.2848 0.816969C32.2315 0.793555 32.1733 0.782508 32.1149 0.784695H30.6241C30.5686 0.783145 30.5136 0.796353 30.4651 0.82292C30.4166 0.849487 30.3764 0.888432 30.3486 0.93561C30.2947 1.00608 30.2714 1.09459 30.2838 1.18184L30.5836 3.27876C30.6024 3.37979 30.6501 3.47347 30.7213 3.54882C30.7609 3.5923 30.8097 3.62687 30.8643 3.65018C30.9188 3.67348 30.9778 3.68497 31.0373 3.68384H32.5281C32.5835 3.68456 32.638 3.67101 32.6863 3.64452C32.7347 3.61803 32.7751 3.57956 32.8035 3.53294C32.8317 3.4974 32.8514 3.45612 32.8612 3.41214C32.8711 3.36816 32.8707 3.32259 32.8602 3.27876L32.5686 1.18184ZM26.5569 4.359L26.411 3.32642H19.2246C19.1118 3.33252 19.0026 3.36818 18.9086 3.42968C18.849 3.46158 18.797 3.5058 18.7565 3.55928C18.7159 3.61276 18.6877 3.67423 18.6737 3.73945L18.0742 5.70928C18.0502 5.75851 18.042 5.81374 18.0507 5.86761C18.0594 5.92149 18.0845 5.9715 18.1228 6.01113C18.1911 6.07409 18.2803 6.11079 18.3739 6.11439H27.1079L24.9608 13.1518H16.2512C16.1389 13.1543 16.0295 13.1873 15.9353 13.2471C15.8207 13.3184 15.737 13.4288 15.7003 13.5569L15.0926 15.5267C15.0728 15.5773 15.0676 15.6322 15.0776 15.6854C15.0876 15.7387 15.1124 15.7882 15.1493 15.8285C15.2155 15.8957 15.3054 15.9355 15.4005 15.9397H26.8405C26.9588 15.9298 27.0728 15.8916 27.1726 15.8285C27.2923 15.7626 27.382 15.6548 27.4238 15.5267L30.7132 4.75614H27.0106C26.9519 4.75728 26.8935 4.74659 26.8392 4.72473C26.7848 4.70287 26.7357 4.6703 26.6947 4.62905C26.6277 4.55702 26.5803 4.46961 26.5569 4.37488V4.359Z" fill="white"/>
</g>
<defs>
<clipPath id="clip0_211_2053">
<rect width="38.2838" height="20.8821" fill="white" transform="translate(0.299377 0.0537109)"/>
</clipPath>
</defs>
</svg>
