<svg width="34" height="35" viewBox="0 0 34 35" fill="none" xmlns="http://www.w3.org/2000/svg">
<g clip-path="url(#clip0_211_2056)">
<path d="M31.7852 10.2311C31.7852 10.2546 31.7852 10.284 31.779 10.3017C31.7484 10.5312 31.7484 10.7607 31.7667 10.996C31.779 11.0549 31.7913 11.1137 31.8403 11.1608C31.92 11.249 32.0426 11.2314 32.0917 11.1255C32.1162 11.0725 32.1162 11.0196 32.1039 10.9666C32.0426 10.743 32.0304 10.5076 32.0243 10.2781C32.0243 10.2664 32.0243 10.2487 32.0243 10.2311C32.0917 10.2252 32.153 10.2193 32.2082 10.2193C32.2511 10.2134 32.2879 10.2075 32.3186 10.1899C32.4105 10.1428 32.4105 10.0428 32.3124 9.99571C32.2756 9.97805 32.2266 9.97217 32.1837 9.97217C32.0304 9.97805 31.8771 9.97805 31.7238 9.97805C31.6687 9.97805 31.6135 9.98394 31.5583 9.98982C31.5276 9.99571 31.4909 9.99571 31.4664 10.0134C31.4234 10.031 31.3989 10.0604 31.3989 10.1016C31.405 10.1428 31.4234 10.1663 31.4664 10.184C31.4909 10.2017 31.5215 10.2075 31.5522 10.2075C31.6257 10.2134 31.7055 10.2252 31.7852 10.2311ZM33.4711 10.5017C33.4711 10.5076 33.4772 10.5135 33.4772 10.5135C33.5018 10.6724 33.5263 10.8254 33.5447 10.9784C33.5508 11.0313 33.557 11.0784 33.5937 11.1196C33.6734 11.2196 33.7961 11.2078 33.8512 11.1019C33.8758 11.049 33.8819 10.996 33.8696 10.9372C33.8328 10.7607 33.8144 10.5841 33.7777 10.4135C33.7531 10.3076 33.7225 10.2075 33.6918 10.1134C33.6734 10.0545 33.6305 10.0134 33.557 10.0075C33.4834 9.99571 33.4282 10.031 33.3975 10.084C33.3608 10.131 33.3301 10.1781 33.3056 10.2311C33.2627 10.3252 33.2259 10.4194 33.1769 10.5076C33.1707 10.5312 33.1646 10.5488 33.1523 10.5665C33.1462 10.5547 33.1401 10.5488 33.1401 10.5488C33.0603 10.4017 32.9868 10.2546 32.9071 10.1134C32.8948 10.1016 32.8887 10.0899 32.8826 10.0781C32.8458 10.0251 32.8029 9.99571 32.7354 9.99571C32.6741 10.0016 32.625 10.0369 32.5944 10.0899C32.5821 10.1134 32.5821 10.131 32.576 10.1546C32.5515 10.3429 32.5208 10.5312 32.4963 10.7195C32.484 10.8254 32.4779 10.9313 32.4779 11.0372C32.4718 11.0607 32.4779 11.0902 32.4902 11.1137C32.5025 11.1608 32.5392 11.1902 32.5883 11.1961C32.6496 11.202 32.6925 11.1843 32.7109 11.1372C32.7293 11.1019 32.7354 11.0725 32.7416 11.0431C32.7661 10.9372 32.7845 10.8371 32.8029 10.7371C32.8151 10.6783 32.8212 10.6312 32.8397 10.5665C32.8519 10.59 32.8641 10.6077 32.8764 10.6253C32.9316 10.6959 32.9868 10.7665 33.0542 10.8254C33.1217 10.8725 33.1769 10.8666 33.232 10.8136C33.2443 10.8018 33.2504 10.796 33.2627 10.7842C33.3179 10.7018 33.3853 10.6194 33.4405 10.5371C33.4527 10.5253 33.4589 10.5135 33.4711 10.5017Z" fill="#3A3B7B"/>
<path d="M19.3449 10.3467C19.3023 10.4585 19.2941 10.5391 19.3138 10.606C19.3355 10.6971 19.392 10.7269 19.4685 10.7037C20.1886 10.5328 21.7677 11.0179 22.3523 11.1531C22.4902 11.1815 22.6024 11.0107 22.5083 10.8576C22.371 10.7092 20.7926 10.0742 20.1903 10.0396C19.9543 10.0268 19.5323 9.96869 19.3449 10.3467Z" fill="#3A3B7B"/>
<path d="M25.5161 8.29105C25.5929 8.33356 25.6358 8.37412 25.657 8.41943C25.6885 8.47887 25.6719 8.51999 25.6189 8.54098C25.1429 8.76395 24.5094 9.72389 24.2538 10.055C24.1918 10.1311 24.0488 10.0869 24.0272 9.96162C24.0317 9.82001 24.5931 8.77826 24.9065 8.49452C25.0297 8.38374 25.2331 8.16638 25.5161 8.29105Z" fill="#3A3B7B"/>
<path d="M21.7254 7.81854C21.8176 7.75184 21.9134 7.72847 21.9623 7.77182C22.6805 8.36132 23.0614 9.29484 23.2972 10.1495C23.3061 10.1694 23.3067 10.1979 23.2996 10.2278C23.2966 10.2532 23.2772 10.2801 23.2464 10.301C23.2135 10.324 23.1852 10.331 23.1719 10.3111C22.8571 9.90023 21.0593 8.30145 21.7254 7.81854Z" fill="#3A3B7B"/>
<path d="M6.51689 18.039C6.68901 17.916 6.87615 17.8136 7.07417 17.7341C7.28135 17.6773 7.50218 17.6867 7.70328 17.761C7.90434 17.8353 8.07479 17.9704 8.18873 18.146C8.29066 18.321 8.33053 18.5232 8.30239 18.7219C8.27426 18.9206 8.17962 19.1052 8.03268 19.2478C7.91878 19.3634 7.78946 19.4641 7.64818 19.5473C7.01846 19.9378 6.38313 20.3068 5.74783 20.6973C5.61783 20.795 5.47993 20.8827 5.33543 20.9594C5.11565 21.0646 4.86447 21.0928 4.62533 21.039C4.38619 20.9854 4.17413 20.8531 4.02581 20.6652C3.91494 20.5322 3.82137 20.3867 3.74717 20.232C3.1453 19.0178 2.52115 17.809 1.94157 16.5734C1.67407 16.0386 1.45673 15.4235 1.24496 14.8298C1.15334 14.6573 1.13545 14.4573 1.19509 14.2723C1.25474 14.0873 1.38722 13.932 1.56436 13.8393C1.74149 13.7467 1.9493 13.724 2.14359 13.7761C2.33788 13.8282 2.50332 13.951 2.60473 14.1184C2.91644 14.516 3.19236 14.9383 3.42952 15.3807C4.03138 16.4504 4.60539 17.5202 5.18497 18.5578C5.21872 18.6151 5.25593 18.6705 5.29642 18.7236C5.73265 18.5476 6.14295 18.3174 6.51689 18.039Z" fill="#3A3B7B"/>
<path d="M12.7398 17.6658C11.3634 19.2116 9.05619 18.8211 7.89704 16.8314C7.07224 15.4194 6.92736 13.0873 8.72184 11.6164C9.10503 11.3085 9.56323 11.0987 10.0537 11.0067C10.6551 10.9239 11.2684 11.0258 11.8059 11.2976C12.3433 11.5695 12.7775 11.9975 13.0464 12.5204C14.0272 14.232 13.8879 16.4142 12.7398 17.6658ZM12.1826 14.0608C12.0363 13.6402 11.743 13.2811 11.3522 13.0445C11.1311 12.8933 10.8624 12.8197 10.5914 12.8363C10.3204 12.8529 10.0636 12.9585 9.86426 13.1355C9.06736 13.8148 8.90014 15.4247 9.47971 16.3821C9.5536 16.5383 9.66208 16.677 9.79766 16.7887C9.93324 16.9003 10.0926 16.9822 10.2646 17.0286C10.4366 17.0749 10.617 17.0847 10.7934 17.0571C10.9697 17.0295 11.1376 16.9652 11.2854 16.8689C11.7173 16.5474 12.0343 16.1048 12.192 15.6025C12.3499 15.1002 12.3407 14.5632 12.1659 14.0662L12.1826 14.0608Z" fill="#3A3B7B"/>
<path d="M18.3572 14.7347C18.2163 14.7638 18.0707 14.7656 17.9291 14.7398C17.7875 14.7141 17.6526 14.6615 17.5325 14.585C17.4274 14.5273 17.3369 14.4479 17.2675 14.3527C17.1982 14.2574 17.1518 14.1486 17.1315 14.034C17.1113 13.9194 17.1177 13.8019 17.1504 13.6901C17.1831 13.5782 17.2413 13.4746 17.3207 13.3869C17.4591 13.2105 17.6554 13.0842 17.878 13.0285C18.4591 12.8666 19.0573 12.768 19.6613 12.7343C19.794 12.7195 19.9285 12.7303 20.0568 12.766C20.1851 12.8018 20.3047 12.8618 20.4085 12.9425C20.5123 13.0232 20.5983 13.1231 20.6614 13.2361C20.7245 13.3491 20.7634 13.4731 20.7759 13.6008C20.95 14.228 20.9691 14.8855 20.8316 15.521C20.3301 17.5749 18.6025 18.2809 16.6631 17.623C16.1187 17.4471 15.6414 17.1194 15.2922 16.6817C14.8264 16.1545 14.4962 15.5298 14.3281 14.8578C14.1919 14.2593 14.2068 13.6383 14.3716 13.0465C14.5364 12.4548 14.8463 11.9094 15.2755 11.456C15.6827 10.9632 16.2113 10.5754 16.8136 10.3274C17.1942 10.1261 17.6395 10.0688 18.0619 10.167C18.1577 10.1924 18.2447 10.242 18.3138 10.3106C18.3829 10.3792 18.4317 10.4643 18.455 10.557C18.4783 10.6498 18.4753 10.7469 18.4464 10.8382C18.4174 10.9295 18.3636 11.0117 18.2904 11.0762C18.1512 11.1971 18 11.3046 17.839 11.3972C17.3435 11.7 16.9124 12.0902 16.5684 12.5471C16.3429 12.8428 16.1876 13.1823 16.1134 13.5418C16.0393 13.9012 16.0481 14.2719 16.1393 14.6278C16.2657 15.113 16.5461 15.5485 16.9417 15.874C18.1678 16.9438 19.7616 15.9114 19.483 14.4513C19.0762 14.5475 18.7195 14.6492 18.3572 14.7347Z" fill="#3A3B7B"/>
<path d="M25.8473 17.7514C24.0361 18.8211 21.9742 17.7514 21.5227 15.5049C21.194 13.9003 21.8181 11.6539 24.0027 10.7981C24.4675 10.6199 24.9716 10.5574 25.4683 10.6162C26.0651 10.7211 26.6126 11.003 27.0335 11.4224C27.4544 11.8417 27.7276 12.3773 27.8145 12.9536C28.1823 14.8631 27.3464 16.9009 25.8473 17.7514ZM26.4771 14.1517C26.4765 13.7074 26.3127 13.2774 26.0145 12.9375C25.8551 12.7273 25.6246 12.5767 25.3624 12.5113C25.1002 12.446 24.8225 12.47 24.5767 12.5792C23.5959 12.9857 22.9048 14.4619 23.1556 15.5477C23.1748 15.7181 23.2324 15.8825 23.3247 16.0292C23.4169 16.176 23.5414 16.3016 23.6895 16.3974C23.8375 16.4932 24.0056 16.5568 24.182 16.5837C24.3584 16.6106 24.5387 16.6002 24.7104 16.5533C25.2289 16.3794 25.6778 16.0546 25.9945 15.624C26.3112 15.1935 26.4799 14.6787 26.4771 14.1517Z" fill="#3A3B7B"/>
<path d="M29.646 18.2007C29.6187 18.3965 29.5115 18.5738 29.3479 18.6937C29.1843 18.8135 28.9779 18.8661 28.7739 18.8399C28.5699 18.8136 28.3852 18.7107 28.2603 18.5537C28.1354 18.3967 28.0806 18.1985 28.108 18.0028C28.1353 17.807 28.2426 17.6297 28.4061 17.5098C28.5697 17.39 28.7761 17.3374 28.9801 17.3636C29.1841 17.3899 29.3688 17.4928 29.4937 17.6498C29.6186 17.8068 29.6734 18.0049 29.646 18.2007ZM29.1612 10.9853C29.2672 10.8299 29.4227 10.7116 29.6045 10.648C29.7863 10.5844 29.9846 10.5789 30.1699 10.6323C30.3583 10.6775 30.5247 10.7835 30.6414 10.9325C30.7581 11.0815 30.8179 11.2644 30.8108 11.4506C30.7862 11.7494 30.7397 12.0461 30.6715 12.3385C30.4876 13.328 30.3092 14.3175 30.1142 15.2963C30.025 15.6868 29.908 16.0612 29.7798 16.457C29.7352 16.5807 29.6607 16.6925 29.5625 16.7833C29.5014 16.8515 29.4234 16.9039 29.3356 16.9355C29.2479 16.9672 29.1532 16.977 29.0604 16.9642C28.9677 16.9514 28.8797 16.9164 28.8048 16.8623C28.7299 16.8082 28.6704 16.7369 28.6318 16.6549C28.5656 16.5078 28.5296 16.3498 28.5259 16.1896C28.5259 15.5263 28.5259 14.8578 28.5705 14.1891C28.6463 13.235 28.7953 12.2875 29.0163 11.3543C29.0424 11.2293 29.0914 11.1098 29.1612 11.0013V10.9853Z" fill="#3A3B7B"/>
<path fill-rule="evenodd" clip-rule="evenodd" d="M4.16231 22.4988C4.09651 22.6398 4.07847 22.797 4.11062 22.9482C4.13201 23.1476 4.179 23.3438 4.2505 23.5321C4.33978 23.7628 4.43968 23.9909 4.56285 24.272C4.59118 24.3367 4.62078 24.4043 4.65176 24.4753C4.81787 24.8562 5.02629 25.3429 5.3043 26.0474C5.38299 26.2475 5.45287 26.4493 5.52323 26.6524C5.55166 26.7345 5.58019 26.8168 5.60939 26.8994C5.71406 27.1928 5.89416 27.4564 6.13289 27.6653C6.23426 27.7802 6.36872 27.8639 6.51949 27.9057C6.6732 27.9484 6.83669 27.9457 6.98877 27.8979C7.14084 27.8502 7.27442 27.7596 7.37214 27.638C7.46795 27.5188 7.52492 27.3751 7.536 27.225C7.59816 26.9325 7.57694 26.6293 7.47449 26.3474C7.3119 25.8793 7.12668 25.4106 6.9131 24.9521L6.91212 24.9501C6.56076 24.2327 6.2036 23.5203 5.82954 22.8077L5.82674 22.8027C5.71724 22.617 5.57493 22.451 5.40622 22.3122C5.29668 22.1883 5.1456 22.1047 4.97875 22.0759C4.80835 22.0465 4.6326 22.0761 4.48289 22.1596C4.34126 22.2372 4.22899 22.356 4.16231 22.4988Z" fill="#3A3B7B"/>
<path fill-rule="evenodd" clip-rule="evenodd" d="M9.52889 20.7324C8.97797 20.5955 8.4026 20.5755 7.84289 20.674C7.40936 20.715 6.98299 20.8109 6.68692 21.001C6.53633 21.0978 6.41459 21.222 6.34686 21.3799C6.27877 21.5387 6.27008 21.7203 6.32588 21.9226C6.42776 22.2932 6.56007 22.6535 6.69192 23.0127L6.71328 23.0709L6.71379 23.0722C7.11077 24.1156 7.51153 25.1555 7.91594 26.1918C7.96309 26.3552 8.02978 26.5127 8.11466 26.6613L8.11625 26.664C8.22837 26.8487 8.37217 27.0138 8.54159 27.1525C8.62632 27.2287 8.73111 27.2815 8.84472 27.305C8.95946 27.3288 9.07878 27.3219 9.18968 27.285C9.30063 27.2482 9.39887 27.1828 9.47374 27.096C9.5474 27.0106 9.59563 26.9078 9.61334 26.7983C9.68644 26.501 9.66302 26.1892 9.54618 25.905C9.50973 25.8093 9.48113 25.7115 9.45098 25.6086C9.44093 25.5743 9.43075 25.5394 9.42 25.5039C10.3457 25.1566 11.3307 24.6896 11.677 23.6032C11.8127 23.2278 11.824 22.8213 11.7094 22.4394C11.5947 22.0571 11.3594 21.7182 11.0359 21.4695C10.5956 21.1213 10.0812 20.8697 9.52889 20.7324ZM8.00179 22.0649C8.02002 22.0599 8.03838 22.0552 8.0568 22.0509C8.65946 21.9599 9.27605 22.0811 9.79304 22.392C10.0209 22.544 10.1142 22.713 10.1302 22.8756C10.1468 23.043 10.0834 23.2244 9.95597 23.3988C9.71523 23.7282 9.27591 23.9918 8.87907 24.041C8.58978 23.4015 8.29599 22.7362 8.00179 22.0649Z" fill="#3A3B7B"/>
<path d="M13.2018 19.5619C13.8579 19.2711 14.6706 19.2209 15.3065 19.4254C15.4667 19.4701 15.6057 19.567 15.6996 19.6993C15.793 19.8309 15.8361 19.9894 15.8217 20.1478C15.8208 20.2507 15.7945 20.3519 15.745 20.4432C15.6946 20.5362 15.6216 20.6161 15.5323 20.6763C15.4429 20.7364 15.3398 20.7751 15.2316 20.7889C15.1233 20.8027 15.0133 20.7914 14.9106 20.7557L14.9028 20.753L14.8955 20.7493C14.8429 20.7229 14.7871 20.7031 14.7294 20.6901L14.7258 20.6893C14.2784 20.5753 13.8564 20.7643 13.7023 20.9964C13.6288 21.1071 13.6196 21.2189 13.6809 21.3206C13.7464 21.4294 13.9073 21.5516 14.2327 21.6387C14.3222 21.6623 14.4139 21.685 14.507 21.7081C14.7643 21.7721 15.0317 21.8385 15.2903 21.9306L15.2913 21.931C16.4843 22.3666 16.9285 23.2689 16.7764 24.1175C16.626 24.9568 15.8957 25.7205 14.7976 25.9007C14.398 25.9857 13.9821 25.9691 13.5912 25.8526C13.1993 25.7358 12.846 25.5226 12.5665 25.2341L12.5592 25.2266C12.4709 25.1179 12.4116 24.9902 12.3853 24.8548C12.361 24.7325 12.3738 24.6062 12.4219 24.4906C12.4698 24.3757 12.5507 24.2763 12.6552 24.2039C12.7655 24.1217 12.8986 24.0725 13.0378 24.0622C13.1765 24.052 13.3154 24.0809 13.4372 24.1454C13.5589 24.2018 13.6721 24.2738 13.7737 24.3594L13.7757 24.361C13.9554 24.5188 14.1729 24.5599 14.3814 24.5218C14.593 24.4832 14.7919 24.363 14.9199 24.2036C15.047 24.0452 15.0981 23.857 15.0375 23.6743C14.9765 23.4903 14.7933 23.2841 14.3907 23.1118C14.2854 23.0689 14.1763 23.0343 14.0628 23.0006C14.0321 22.9915 14.001 22.9825 13.9695 22.9733C13.8856 22.9488 13.7992 22.9237 13.7145 22.8959C13.6562 22.8768 13.5983 22.8587 13.541 22.8408C13.3844 22.7918 13.2317 22.7441 13.0848 22.6801C12.765 22.5756 12.4887 22.375 12.297 22.1078C12.1046 21.8396 12.0077 21.5189 12.0209 21.1935C12.0219 20.4006 12.5422 19.8544 13.2018 19.5619Z" fill="#3A3B7B"/>
<path d="M21.5196 19.4775C21.3923 19.4178 21.2517 19.3895 21.1102 19.3951C20.9688 19.4007 20.831 19.44 20.7093 19.5095C20.5884 19.5785 20.4872 19.6751 20.4147 19.7907C20.3482 19.8881 20.3021 19.997 20.2792 20.1114C20.2562 20.2257 20.2568 20.3431 20.2808 20.4572C20.3045 20.6037 20.3307 20.7462 20.3567 20.8867C20.3996 21.1193 20.4414 21.3466 20.469 21.5783L20.47 21.5842C20.5328 21.9477 20.5656 22.3153 20.5686 22.6837L20.5689 22.6889C20.5903 23.0868 20.4491 23.4769 20.1754 23.7765L20.1711 23.7818C20.082 23.8913 19.963 23.9749 19.8272 24.0232C19.6915 24.0715 19.5445 24.0826 19.4026 24.0553C19.2606 24.0279 19.1294 23.9632 19.0236 23.8684C18.9178 23.7736 18.8415 23.652 18.8034 23.518C18.7221 23.2355 18.675 22.945 18.663 22.6522L18.8019 20.5298C18.804 20.5021 18.8063 20.4736 18.8087 20.4449C18.814 20.3804 18.8194 20.3148 18.8217 20.2535C18.8249 20.1634 18.8221 20.0708 18.8003 19.9831C18.7779 19.8934 18.7353 19.8081 18.6598 19.7355C18.585 19.6636 18.484 19.6106 18.357 19.5745C18.1273 19.5107 17.9331 19.5127 17.7712 19.5786C17.6093 19.6445 17.4983 19.7669 17.4198 19.9083C17.3419 20.0485 17.2919 20.2145 17.254 20.3808C17.2259 20.5041 17.2033 20.6336 17.1819 20.7569C17.1745 20.7994 17.1672 20.8411 17.1599 20.8816L17.1597 20.8828C17.0449 21.5589 17.0107 22.2453 17.0578 22.9287C17.0666 23.2981 17.1469 23.6627 17.2946 24.0039C17.4612 24.4441 17.763 24.8255 18.1601 25.0978C18.558 25.3707 19.0329 25.521 19.5219 25.5289C20.0108 25.5369 20.4908 25.402 20.8981 25.1423C21.3048 24.883 21.62 24.5113 21.802 24.0764C22.0566 23.5224 22.1761 22.92 22.1514 22.315C22.1365 21.8732 22.1114 21.4281 22.0865 20.9853C22.0743 20.7681 22.0621 20.5513 22.0511 20.3359C22.0456 20.1198 21.9714 19.9106 21.8384 19.7362C21.7561 19.6259 21.6465 19.537 21.5196 19.4775Z" fill="#3A3B7B"/>
<path d="M26.0222 22.8055C26.0093 22.8212 25.9957 22.8375 25.9815 22.8545C25.8781 22.2815 25.7822 21.7088 25.6861 21.1352C25.6517 20.9294 25.617 20.7227 25.5822 20.5166L25.5783 20.4937L25.5656 20.4738C25.5416 20.4364 25.5392 20.3998 25.5392 20.3216V20.3125L25.5378 20.3036C25.5118 20.1422 25.4357 19.9919 25.3195 19.8725C25.2036 19.7535 25.053 19.6706 24.8874 19.6347C24.7221 19.5955 24.5484 19.6041 24.3882 19.6595C24.2283 19.7147 24.089 19.8139 23.9876 19.9446C23.9033 20.0449 23.8342 20.1562 23.7824 20.2751C23.6648 20.5313 23.5463 20.7882 23.4274 21.0457L23.4253 21.0501C23.1285 21.693 22.8297 22.3402 22.5395 22.9925L22.5386 22.9946C22.3605 23.4175 22.2135 23.8632 22.067 24.3074C22.0377 24.3961 22.0085 24.4848 21.979 24.5732C21.9261 24.7134 21.9029 24.8623 21.9109 25.0112C21.9012 25.1444 21.9345 25.2774 22.0062 25.392C22.0793 25.509 22.1888 25.601 22.3192 25.6552C22.4574 25.7134 22.612 25.7257 22.7584 25.6903C22.9045 25.655 23.0343 25.574 23.1272 25.4602C23.2459 25.3201 23.3481 25.1672 23.4313 25.0053C23.6771 24.5227 23.912 24.0343 24.1458 23.548C24.2363 23.3599 24.3242 23.1915 24.4242 23.008C24.4311 23.0306 24.4381 23.0527 24.4454 23.0748C24.5502 23.5178 24.7271 23.942 24.9697 24.3321C25.0155 24.4147 25.0795 24.4869 25.1571 24.5438C25.2356 24.6013 25.3262 24.6417 25.4226 24.6622C25.519 24.6827 25.619 24.6828 25.7154 24.6624C25.8117 24.6422 25.9026 24.6017 25.9812 24.5445L26.1367 24.4328L27.3436 23.4571L27.2722 23.8936C27.1742 24.4937 27.077 25.0887 26.9737 25.6839C26.9062 25.9477 26.9063 26.2232 26.974 26.4869C27.0034 26.6353 27.0782 26.7719 27.1888 26.8794C27.3004 26.9877 27.4433 27.0613 27.5991 27.0906C27.7548 27.12 27.9161 27.1037 28.0621 27.0439C28.2059 26.9851 28.3283 26.8866 28.4138 26.7611C28.6128 26.5242 28.7367 26.2373 28.7707 25.9347C28.8219 25.5073 28.8798 25.0741 28.9377 24.641C29.0044 24.1418 29.0711 23.6427 29.1274 23.1533L29.1276 23.1517C29.1818 22.6159 29.208 22.0779 29.2062 21.5396C29.2181 21.3695 29.1739 21.2 29.0799 21.0552C28.9855 20.9099 28.8458 20.7969 28.6806 20.7322C28.5088 20.6573 28.3165 20.6372 28.132 20.6751C27.9486 20.7127 27.7827 20.8055 27.6581 20.9399C27.4355 21.1375 27.2267 21.3489 27.033 21.5728L27.0317 21.5743C26.8202 21.8273 26.6102 22.0851 26.4015 22.3414C26.2746 22.4971 26.1481 22.6525 26.0222 22.8055Z" fill="#3A3B7B"/>
</g>
<defs>
<clipPath id="clip0_211_2056">
<rect width="32.7153" height="20.186" fill="white" transform="translate(1.16046 7.74982)"/>
</clipPath>
</defs>
</svg>
