<svg width="29" height="20" viewBox="0 0 29 20" fill="none" xmlns="http://www.w3.org/2000/svg">
<g clip-path="url(#clip0_211_2073)">
<path d="M27.0806 1.03317C27.0806 1.35753 27.3468 1.62048 27.6752 1.62048H28.2697C28.5981 1.62048 28.8643 1.35753 28.8643 1.03317C28.8643 0.708809 28.5981 0.445862 28.2697 0.445862H27.6752C27.3468 0.445862 27.0806 0.708809 27.0806 1.03317Z" fill="#212326"/>
<path d="M9.83839 19.2397H12.7267L11.8858 18.4091C11.6628 18.1889 11.3604 18.0651 11.045 18.0651H9.83839C5.24126 18.0651 1.51456 14.3839 1.51456 9.8428C1.51456 5.30173 5.24126 1.62048 9.83839 1.62048H19.3513C23.9485 1.62048 27.6752 5.30173 27.6752 9.8428C27.6752 14.3839 23.9485 18.0651 19.3513 18.0651H15.7927C15.3197 18.0651 14.866 17.8795 14.5315 17.5491L13.5464 16.576C12.9889 16.0253 12.2327 15.7159 11.4443 15.7159H9.83839C6.55471 15.7159 3.8928 13.0864 3.8928 9.8428C3.8928 6.59916 6.55471 3.96971 9.83839 3.96971H19.3513C22.635 3.96971 25.2969 6.59916 25.2969 9.8428C25.2969 13.0864 22.635 15.7159 19.3513 15.7159H17.0664C16.5933 15.7159 16.1396 15.5302 15.8051 15.1999L14.82 14.2268C14.2625 13.676 13.5063 13.3667 12.7179 13.3667H9.83839C7.86821 13.3667 6.27103 11.789 6.27103 9.8428C6.27103 7.89665 7.86821 6.31895 9.83839 6.31895H19.3513C21.3215 6.31895 22.9187 7.89665 22.9187 9.8428C22.9187 11.7652 21.3602 13.3281 19.4233 13.3659L19.4229 13.3667H18.5528C18.0797 13.3667 17.626 13.181 17.2915 12.8506L16.3064 11.8775C15.849 11.4256 15.2578 11.1362 14.6247 11.0469L14.5949 11.0174H9.83839C9.18166 11.0174 8.64927 10.4915 8.64927 9.8428C8.64927 9.19408 9.18166 8.66818 9.83839 8.66818H19.3513C20.0081 8.66818 20.5405 9.19408 20.5405 9.8428C20.5405 10.4915 20.0081 11.0174 19.3513 11.0174H16.9731L17.814 11.848C18.0369 12.0683 18.3394 12.192 18.6548 12.192H19.3513C20.6648 12.192 21.7296 11.1402 21.7296 9.8428C21.7296 8.54536 20.6648 7.49357 19.3513 7.49357H9.83839C8.52494 7.49357 7.46015 8.54536 7.46015 9.8428C7.46015 11.1402 8.52494 12.192 9.83839 12.192H14.2043C14.6774 12.192 15.1311 12.3777 15.4656 12.7081L16.4507 13.6812C17.0082 14.2319 17.7643 14.5413 18.5528 14.5413H19.6486V14.5322C22.1371 14.3807 24.1078 12.339 24.1078 9.8428C24.1078 7.24793 21.9782 5.14433 19.3513 5.14433H9.83839C7.21148 5.14433 5.08191 7.24793 5.08191 9.8428C5.08191 12.4377 7.21148 14.5413 9.83839 14.5413H12.7179C13.191 14.5413 13.6447 14.7269 13.9792 15.0573L14.9643 16.0304C15.5218 16.5811 16.2779 16.8905 17.0664 16.8905H19.3513C23.2917 16.8905 26.4861 13.7352 26.4861 9.8428C26.4861 5.95045 23.2917 2.7951 19.3513 2.7951H9.83839C5.89798 2.7951 2.70368 5.95045 2.70368 9.8428C2.70368 13.7352 5.89798 16.8905 9.83839 16.8905H11.4443C11.9173 16.8905 12.371 17.0761 12.7055 17.4065L13.6907 18.3796C14.2482 18.9303 15.0043 19.2397 15.7927 19.2397H19.3513C24.6052 19.2397 28.8643 15.0326 28.8643 9.8428C28.8643 4.65301 24.6052 0.445861 19.3513 0.445862L9.83839 0.445864C4.58453 0.445864 0.325439 4.65302 0.325439 9.8428C0.32544 15.0326 4.58453 19.2397 9.83839 19.2397Z" fill="#212326"/>
</g>
<defs>
<clipPath id="clip0_211_2073">
<rect width="28.5388" height="18.7939" fill="white" transform="translate(0.325439 0.445862)"/>
</clipPath>
</defs>
</svg>
