<svg width="37" height="15" viewBox="0 0 37 15" fill="none" xmlns="http://www.w3.org/2000/svg">
<g clip-path="url(#clip0_211_2077)">
<path d="M8.81751 0.534058C7.40398 0.534058 6.04836 1.09558 5.04885 2.09509L1.78686 5.35708C0.787349 6.35659 0.22583 7.7122 0.22583 9.12574C0.22583 12.0693 2.61202 14.4554 5.55554 14.4554C6.96907 14.4554 8.32469 13.8939 9.3242 12.8944L11.5805 10.6381C11.5805 10.638 11.5806 10.6381 11.5805 10.6381L18.1547 4.06387C18.6321 3.58651 19.2795 3.31834 19.9546 3.31834C21.0849 3.31834 22.0431 4.05497 22.3753 5.07432L24.4501 2.99952C23.5036 1.51707 21.8439 0.534058 19.9546 0.534058C18.5411 0.534058 17.1855 1.09558 16.186 2.09509L7.35544 10.9256C6.87807 11.403 6.23064 11.6712 5.55554 11.6712C4.14973 11.6712 3.01011 10.5316 3.01011 9.12574C3.01011 8.45064 3.27828 7.8032 3.75564 7.32584L7.01761 4.06387C7.49498 3.58651 8.14241 3.31834 8.81751 3.31834C9.94779 3.31834 10.9059 4.055 11.2382 5.07438L13.313 2.99957C12.3665 1.51709 10.7068 0.534058 8.81751 0.534058Z" fill="#394149"/>
<path d="M18.4925 10.9256C18.0152 11.403 17.3677 11.6712 16.6926 11.6712C15.5626 11.6712 14.6044 10.9347 14.2721 9.91554L12.1974 11.9903C13.1439 13.4726 14.8035 14.4554 16.6926 14.4554C18.1062 14.4554 19.4618 13.8939 20.4613 12.8944L29.2918 4.06387C29.7692 3.58651 30.4166 3.31834 31.0917 3.31834C32.4976 3.31834 33.6372 4.45796 33.6372 5.86377C33.6372 6.53886 33.369 7.1863 32.8916 7.66367L29.6297 10.9256C29.1523 11.403 28.5049 11.6712 27.8298 11.6712C26.6996 11.6712 25.7414 10.9346 25.4092 9.91531L23.3344 11.9901C24.2809 13.4725 25.9405 14.4554 27.8298 14.4554C29.2433 14.4554 30.5989 13.8939 31.5984 12.8944L34.8604 9.63243C35.8599 8.63292 36.4214 7.2773 36.4214 5.86377C36.4214 2.92025 34.0353 0.534058 31.0917 0.534058C29.6782 0.534058 28.3226 1.09558 27.3231 2.09509L18.4925 10.9256Z" fill="#394149"/>
</g>
<defs>
<clipPath id="clip0_211_2077">
<rect width="36.1956" height="13.9214" fill="white" transform="translate(0.22583 0.534058)"/>
</clipPath>
</defs>
</svg>
