<svg width="39" height="35" viewBox="0 0 39 35" fill="none" xmlns="http://www.w3.org/2000/svg">
<g clip-path="url(#clip0_211_2080)">
<path d="M38.8874 14.4805C38.8914 14.4515 38.8914 14.4222 38.8874 14.3931C38.8912 14.3695 38.8912 14.3454 38.8874 14.3217L38.6038 12.2803C38.5629 12.0361 38.4535 11.8079 38.2878 11.6211L38.2392 11.5655L38.1501 11.4781L33.2403 7.33191L33.3781 7.46695C33.2654 7.33478 33.1239 7.22906 32.9641 7.15758C32.8043 7.0861 32.6301 7.05067 32.4545 7.05392H30.9637C30.7213 7.04921 30.4844 7.12477 30.2912 7.26838C30.0884 7.12563 29.8441 7.05046 29.5944 7.05392H28.1037C27.9081 7.05081 27.7153 7.09838 27.5446 7.19183C27.3738 7.28528 27.2313 7.42129 27.1315 7.58609C26.9775 7.82147 26.9196 8.10506 26.9694 8.38038L27.1558 9.66712C27.0323 9.59852 26.8926 9.56292 26.7506 9.56388H19.5318C19.2728 9.56547 19.0198 9.63989 18.8026 9.77833C18.5926 9.90718 18.4241 10.0917 18.3165 10.3105L17.7575 9.84187C17.5374 9.64229 17.247 9.53411 16.9473 9.54005H5.62073C5.36081 9.54469 5.10666 9.61587 4.88347 9.74656C4.57813 9.92177 4.35435 10.2067 4.2596 10.5408L0.662334 22.3361C0.59512 22.5304 0.588508 22.74 0.643345 22.9381C0.698182 23.1361 0.811983 23.3137 0.970212 23.4481C1.01144 23.4823 1.05473 23.5142 1.09985 23.5434C1.09985 23.5434 1.02692 23.4957 0.986407 23.456L5.89622 27.6101C6.10391 27.7976 6.37546 27.9024 6.65775 27.904H18.0735C18.3342 27.8974 18.5885 27.8234 18.8107 27.6895C18.9364 27.6222 19.0489 27.5334 19.1429 27.4274L19.1834 27.3718L19.2482 27.2924L19.2968 27.205L19.8316 27.6578C20.0363 27.8378 20.3019 27.9368 20.577 27.9358H32.0169C32.2773 27.9273 32.5312 27.8535 32.7542 27.7213C32.8771 27.6499 32.9889 27.5616 33.0864 27.4592L33.1269 27.4036L33.1917 27.3242C33.2261 27.2739 33.256 27.2208 33.2808 27.1653C33.3073 27.1172 33.329 27.0666 33.3456 27.0144L36.6269 16.2439V16.1485C36.631 16.1116 36.631 16.0743 36.6269 16.0373V15.9659C36.6308 15.9422 36.6308 15.9181 36.6269 15.8944C36.6306 15.8441 36.6306 15.7937 36.6269 15.7434H37.6802C37.7718 15.7517 37.864 15.7517 37.9556 15.7434H38.0286C38.0879 15.7261 38.145 15.7021 38.1987 15.672H38.2798L38.4256 15.5608L38.4904 15.5131L38.6038 15.3701V15.3225L38.6848 15.1874C38.6803 15.1612 38.6803 15.1343 38.6848 15.108C38.6805 15.0951 38.6805 15.0812 38.6848 15.0683C38.7021 15.0217 38.7156 14.9739 38.7253 14.9253C38.7216 14.9097 38.7216 14.8933 38.7253 14.8777C38.7214 14.854 38.7214 14.8298 38.7253 14.8062C38.7253 14.8062 38.8874 14.4964 38.8874 14.4805Z" fill="black"/>
<path d="M17.2795 10.4456C17.3225 10.4837 17.3525 10.5338 17.3656 10.5892C17.3786 10.6446 17.374 10.7026 17.3524 10.7553L13.7633 22.5426C13.7181 22.6713 13.6256 22.7789 13.504 22.8444C13.405 22.9093 13.2905 22.9477 13.1718 22.9556H1.76424C1.66682 22.951 1.57452 22.9115 1.50497 22.8444C1.4636 22.8069 1.43456 22.7582 1.42157 22.7044C1.40858 22.6507 1.41224 22.5943 1.43206 22.5426L5.02933 10.7553C5.07077 10.625 5.16033 10.5146 5.28048 10.4456C5.38107 10.3853 5.49506 10.3499 5.61267 10.3423H17.0202C17.1169 10.3432 17.2095 10.3801 17.2795 10.4456ZM11.3245 20.1677L13.4716 13.1303H7.45993L5.32099 20.1677H11.3245ZM28.1685 10.5647C28.2074 10.609 28.2561 10.6442 28.3108 10.6676C28.3655 10.691 28.4248 10.702 28.4845 10.6997H29.9671C30.0236 10.7003 30.0792 10.6867 30.1289 10.6603C30.1785 10.6339 30.2204 10.5955 30.2507 10.5488C30.277 10.5123 30.2956 10.471 30.3054 10.4274C30.3151 10.3837 30.3158 10.3386 30.3074 10.2947L30.0157 8.19773C29.988 8.10068 29.9381 8.01106 29.87 7.93561C29.831 7.89127 29.7824 7.8561 29.7277 7.83272C29.6729 7.80935 29.6136 7.79836 29.5539 7.80058H28.0713C28.0148 7.80004 27.9592 7.81362 27.9096 7.84002C27.8599 7.86643 27.818 7.90479 27.7877 7.9515C27.731 8.0627 27.7067 8.13418 27.731 8.19773L28.0308 10.2947C28.0462 10.3968 28.0944 10.4914 28.1685 10.5647ZM32.8758 8.18184C32.848 8.08479 32.7981 7.99517 32.7299 7.91972C32.6926 7.87554 32.6454 7.84039 32.592 7.81697C32.5387 7.79355 32.4805 7.78251 32.422 7.7847H30.9313C30.8758 7.78314 30.8208 7.79635 30.7723 7.82292C30.7238 7.84949 30.6836 7.88843 30.6558 7.93561C30.6019 8.00608 30.5786 8.09459 30.591 8.18184L30.8907 10.2788C30.9096 10.3798 30.9573 10.4735 31.0285 10.5488C31.0681 10.5923 31.1169 10.6269 31.1714 10.6502C31.226 10.6735 31.285 10.685 31.3445 10.6838H32.8352C32.8906 10.6846 32.9452 10.671 32.9935 10.6445C33.0419 10.618 33.0823 10.5796 33.1107 10.5329C33.1389 10.4974 33.1586 10.4561 33.1684 10.4121C33.1783 10.3682 33.1779 10.3226 33.1674 10.2788L32.8758 8.18184ZM26.8641 11.359L26.7182 10.3264H19.5318C19.419 10.3325 19.3098 10.3682 19.2158 10.4297C19.1562 10.4616 19.1042 10.5058 19.0637 10.5593C19.0231 10.6128 18.9949 10.6742 18.9809 10.7395L18.3813 12.7093C18.3574 12.7585 18.3492 12.8137 18.3579 12.8676C18.3666 12.9215 18.3917 12.9715 18.4299 13.0111C18.4983 13.0741 18.5874 13.1108 18.6811 13.1144H27.4151L25.268 20.1518H16.5584C16.4461 20.1543 16.3367 20.1873 16.2425 20.2471C16.1279 20.3184 16.0442 20.4288 16.0075 20.5569L15.3998 22.5267C15.38 22.5773 15.3748 22.6322 15.3848 22.6854C15.3948 22.7387 15.4196 22.7882 15.4565 22.8285C15.5227 22.8957 15.6126 22.9355 15.7077 22.9397H27.1477C27.266 22.9298 27.38 22.8916 27.4798 22.8285C27.5995 22.7626 27.6892 22.6548 27.731 22.5267L31.0204 11.7561H27.3178C27.259 11.7573 27.2007 11.7466 27.1464 11.7247C27.092 11.7029 27.0428 11.6703 27.0019 11.6291C26.9349 11.557 26.8875 11.4696 26.8641 11.3749V11.359Z" fill="white"/>
</g>
<defs>
<clipPath id="clip0_211_2080">
<rect width="38.2838" height="20.8821" fill="white" transform="translate(0.606567 7.05371)"/>
</clipPath>
</defs>
</svg>
